<svg xmlns="http://www.w3.org/2000/svg" xmlns:xlink="http://www.w3.org/1999/xlink" width="215.99" height="189.811" viewBox="0 0 215.99 189.811">
  <defs>
    <clipPath id="clip-path">
      <path id="Path_16915" data-name="Path 16915" d="M102.9,0C47.38.1,2.8,29.017,2.8,63.528c0,35.077,46.04,63.512,102.832,63.512S248.655,63.046,208.461,63.528C90.492,64.942,159.781.835,105.629.018Q104.568,0,103.513,0Z" transform="translate(-2.797)" fill="none"/>
    </clipPath>
    <linearGradient id="linear-gradient" x1="0.055" y1="0.338" x2="0.789" y2="0.417" gradientUnits="objectBoundingBox">
      <stop offset="0" stop-color="#0069b4"/>
      <stop offset="1" stop-color="#00b1ec"/>
    </linearGradient>
    <clipPath id="clip-path-2">
      <rect id="Rectangle_5821" data-name="Rectangle 5821" width="155.987" height="189.811" fill="none"/>
    </clipPath>
  </defs>
  <g id="Group_31864" data-name="Group 31864" transform="translate(-475.5 -246)">
    <g id="Group_31857" data-name="Group 31857" transform="translate(475.5 307.677)">
      <g id="Group_31417" data-name="Group 31417" clip-path="url(#clip-path)">
        <path id="Path_16988" data-name="Path 16988" d="M0,0,245.762,16.53l17.552,269.288L17.552,269.288Z" transform="translate(-70.827 78.19) rotate(-51.677)" fill="url(#linear-gradient)"/>
      </g>
    </g>
    <g id="Group_31854" data-name="Group 31854" transform="translate(513.506 246)">
      <path id="Path_17166" data-name="Path 17166" d="M79.7,143.538v-48.9l65.749-37.961V132.6L79.7,170.553Z" transform="translate(8.866 6.305)" fill="#bcc621"/>
      <path id="Path_17167" data-name="Path 17167" d="M152.036,60.48,86.286,98.441,20.537,60.48,86.286,22.52Z" transform="translate(2.284 2.505)" fill="#fff"/>
      <path id="Path_17168" data-name="Path 17168" d="M86.286,143.538v27.015L20.537,132.6V56.681L86.286,94.641Z" transform="translate(2.284 6.305)" fill="#00b1ec"/>
      <g id="Group_31819" data-name="Group 31819">
        <g id="Group_31818" data-name="Group 31818" clip-path="url(#clip-path-2)">
          <path id="Path_17169" data-name="Path 17169" d="M132.905,167.3a1.651,1.651,0,0,1-.832-.223l-31.983-18.459a1.667,1.667,0,0,1,1.667-2.887l31.983,18.459a1.667,1.667,0,0,1-.835,3.11" transform="translate(11.04 16.185)" fill="#373a3a"/>
          <path id="Path_17170" data-name="Path 17170" d="M99.383,147.948a1.651,1.651,0,0,1-.832-.223L94.7,145.5a1.667,1.667,0,1,1,1.667-2.887l3.85,2.222a1.667,1.667,0,0,1-.835,3.11m-13.474-7.779a1.663,1.663,0,0,1-.832-.223l-3.849-2.222a1.667,1.667,0,1,1,1.667-2.887l3.849,2.222a1.667,1.667,0,0,1-.835,3.11m-13.473-7.78a1.663,1.663,0,0,1-.832-.223l-3.849-2.222a1.667,1.667,0,0,1,1.667-2.887l3.849,2.222a1.667,1.667,0,0,1-.835,3.11m-13.473-7.779a1.663,1.663,0,0,1-.832-.223l-3.849-2.222a1.667,1.667,0,0,1,1.667-2.887L59.8,121.5a1.667,1.667,0,0,1-.835,3.11m-13.473-7.779a1.663,1.663,0,0,1-.832-.223l-3.849-2.224a1.667,1.667,0,1,1,1.667-2.887l3.849,2.224a1.667,1.667,0,0,1-.835,3.11m-13.473-7.78a1.651,1.651,0,0,1-.832-.223l-3.849-2.222A1.667,1.667,0,1,1,29,103.719l3.849,2.222a1.667,1.667,0,0,1-.835,3.11" transform="translate(2.948 11.512)" fill="#373a3a"/>
          <path id="Path_17171" data-name="Path 17171" d="M22.008,113.548a1.654,1.654,0,0,1-.831-.222L8.133,105.8a1.666,1.666,0,0,1-.835-1.443V1.666a1.667,1.667,0,0,1,3.334,0V103.394l12.21,7.043a1.667,1.667,0,0,1-.833,3.111" transform="translate(0.812 0)" fill="#373a3a"/>
          <path id="Path_17172" data-name="Path 17172" d="M17.889,18.826a1.666,1.666,0,0,1-1.478-.895l-7.2-13.75L2.672,9.125A1.667,1.667,0,0,1,.662,6.466L8.772.337a1.667,1.667,0,0,1,2.481.557l8.111,15.494a1.667,1.667,0,0,1-1.476,2.439" transform="translate(0 0)" fill="#373a3a"/>
          <path id="Path_17173" data-name="Path 17173" d="M122.7,173.31a1.667,1.667,0,0,1-1.006-3l6.984-5.279-7.456-14.254a1.667,1.667,0,1,1,2.954-1.546l8.111,15.505a1.667,1.667,0,0,1-.472,2.1l-8.111,6.13a1.655,1.655,0,0,1-1,.338" transform="translate(13.463 16.5)" fill="#373a3a"/>
          <path id="Path_17174" data-name="Path 17174" d="M86.453,100.275a1.665,1.665,0,0,1-.833-.223L19.87,62.09a1.667,1.667,0,0,1,0-2.887L85.62,21.242a1.667,1.667,0,0,1,1.667,0L153.036,59.2a1.667,1.667,0,0,1,0,2.887L87.287,100.052a1.665,1.665,0,0,1-.833.223M24.038,60.647,86.453,96.684l62.416-36.037L86.453,24.611Z" transform="translate(2.118 2.338)" fill="#373a3a"/>
          <path id="Path_17175" data-name="Path 17175" d="M79.872,168.586a1.667,1.667,0,0,1-1.667-1.667V91.009a1.667,1.667,0,1,1,3.334,0v75.911a1.667,1.667,0,0,1-1.667,1.667" transform="translate(8.699 9.938)" fill="#373a3a"/>
          <path id="Path_17176" data-name="Path 17176" d="M86.453,172.386a1.665,1.665,0,0,1-.833-.223L19.87,134.213a1.664,1.664,0,0,1-.833-1.442V56.847a1.667,1.667,0,0,1,3.334,0v74.96L86.453,168.8l64.083-36.988V56.847a1.667,1.667,0,1,1,3.334,0v75.924a1.664,1.664,0,0,1-.833,1.442l-65.749,37.95a1.665,1.665,0,0,1-.833.223" transform="translate(2.118 6.138)" fill="#373a3a"/>
        </g>
      </g>
    </g>
  </g>
</svg>
