<?xml version="1.0" encoding="UTF-8"?>
<svg width="201px" height="34px" viewBox="0 0 201 34" version="1.1" xmlns="http://www.w3.org/2000/svg" xmlns:xlink="http://www.w3.org/1999/xlink">
    <!-- Generator: Sketch 48.1 (47250) - http://www.bohemiancoding.com/sketch -->
    <title>logo_header@3x</title>
    <desc>Created with Sketch.</desc>
    <defs>
        <linearGradient x1="50%" y1="0%" x2="50%" y2="100%" id="linearGradient-1">
            <stop stop-color="#01BEF1" offset="0%"></stop>
            <stop stop-color="#006FBA" offset="100%"></stop>
        </linearGradient>
        <linearGradient x1="50%" y1="0%" x2="50%" y2="100%" id="linearGradient-2">
            <stop stop-color="#00C0F3" offset="0%"></stop>
            <stop stop-color="#0189CB" offset="100%"></stop>
        </linearGradient>
        <linearGradient x1="50%" y1="0%" x2="50%" y2="100%" id="linearGradient-3">
            <stop stop-color="#008DCE" offset="0%"></stop>
            <stop stop-color="#0071BB" offset="100%"></stop>
        </linearGradient>
        <polygon id="path-4" points="14.79601 21.0319148 0 21.0319148 0 10.7108347 0 0.38975459 14.79601 0.38975459"></polygon>
    </defs>
    <g id="Management" stroke="none" stroke-width="1" fill="none" fill-rule="evenodd" transform="translate(-27.000000, -30.000000)">
        <g id="top-plasma">
            <g id="final-white-header" transform="translate(27.000000, 27.957265)">
                <g id="logo_header" transform="translate(0.000000, 0.957265)">
                    <g id="logo-circle">
                        <g id="Group">
                            <rect id="Rectangle-2-Copy-8" fill="#BCBEC0" transform="translate(5.526316, 11.317397) rotate(-315.000000) translate(-5.526316, -11.317397) " x="3.50877193" y="6.01691595" width="4.03508772" height="10.6009615" rx="2.01754386"></rect>
                            <rect id="Rectangle-2-Copy-9" fill="#F7941F" transform="translate(7.543860, 18.799145) rotate(-315.000000) translate(-7.543860, -18.799145) " x="5.52631579" y="10.2485755" width="4.03508772" height="17.1011396" rx="2.01754386"></rect>
                            <rect id="Rectangle-2-Copy-10" fill="#EC028C" transform="translate(19.035088, 7.391115) rotate(-315.000000) translate(-19.035088, -7.391115) " x="17.0175439" y="1.78525641" width="4.03508772" height="11.2117165" rx="2.01754386"></rect>
                            <rect id="Rectangle-2-Copy-11" fill="#BCBEC0" transform="translate(29.824561, 15.876246) rotate(-315.000000) translate(-29.824561, -15.876246) " x="27.8070175" y="11.6009615" width="4.03508772" height="8.5505698" rx="2.01754386"></rect>
                            <rect id="Rectangle-2-Copy-12" fill="url(#linearGradient-1)" transform="translate(18.070175, 27.546029) rotate(-315.000000) translate(-18.070175, -27.546029) " x="16.0526316" y="17.7957621" width="4.03508772" height="19.5005342" rx="2.01754386"></rect>
                            <rect id="Rectangle-2-Copy-13" fill="url(#linearGradient-2)" transform="translate(27.368421, 28.265848) rotate(-315.000000) translate(-27.368421, -28.265848) " x="25.3508772" y="19.5844017" width="4.03508772" height="17.3628917" rx="2.01754386"></rect>
                            <rect id="Rectangle-2-Copy-14" fill="#BFD72F" transform="translate(23.377193, 12.277155) rotate(-315.000000) translate(-23.377193, -12.277155) " x="21.3596491" y="-0.00338319088" width="4.03508772" height="24.5610755" rx="2.01754386"></rect>
                            <rect id="Rectangle-2-Copy-15" fill="url(#linearGradient-3)" transform="translate(8.815789, 26.913462) rotate(-315.000000) translate(-8.815789, -26.913462) " x="6.79824561" y="22.0274217" width="4.03508772" height="9.77207977" rx="2.01754386"></rect>
                            <ellipse id="Oval-Copy" fill="#00C0F3" transform="translate(12.938596, 3.966524) rotate(-315.000000) translate(-12.938596, -3.966524) " cx="12.9385965" cy="3.96652422" rx="2.10526316" ry="2.09401709"></ellipse>
                        </g>
                    </g>
                    <g id="Page-1" transform="translate(42.000000, 7.980057)">
                        <g id="Group-3" transform="translate(0.000000, 0.164547)">
                            <mask id="mask-5" fill="white">
                                <use xlink:href="#path-4"></use>
                            </mask>
                            <g id="Clip-2"></g>
                            <path d="M11.14855,16.1160922 C11.14855,16.7625468 11.00174,17.06917 10.38376,17.1306053 C10.14791,17.1610463 9.64865,17.1914872 9.26546,17.1914872 C4.91204,17.1914872 4.0598,15.5332868 4.0598,13.4439321 L4.0598,8.52965911 C4.0598,5.36546287 5.38321,4.22973946 9.20769,4.22973946 C11.03089,4.22973946 13.41324,4.87398022 14.50133,5.51932793 L14.50133,1.70978398 C13.35441,1.09543068 11.64781,0.38975459 9.0895,0.38975459 C2.61767,0.38975459 0,3.79969215 0,8.22192899 L0,13.1373089 C0,18.9731118 2.82437,21.0320255 9.23631,21.0320255 C10.29472,21.0320255 11.20738,20.9080479 11.70664,20.8156182 C14.20718,20.3855709 14.79601,19.0339936 14.79601,16.3933814 L14.79601,9.297324 L11.14855,9.297324 L11.14855,16.1160922 Z" id="Fill-1" fill="#FFFFFF" mask="url(#mask-5)"></path>
                        </g>
                        <polygon id="Fill-4" fill="#FFFFFF" points="18.50336 20.8272965 22.44444 20.8272965 22.44444 0.861367607 18.50336 0.861367607"></polygon>
                        <path d="M37.298644,16.2806392 C37.298644,16.9270939 37.151834,17.2337171 36.533854,17.2951524 C36.299064,17.3255933 35.798744,17.3560343 35.415554,17.3560343 C31.062134,17.3560343 30.209894,15.6978338 30.209894,13.6084791 L30.209894,8.69420617 C30.209894,5.53000993 31.533304,4.39428652 35.357784,4.39428652 C37.180984,4.39428652 39.563334,5.03852728 40.652484,5.68387499 L40.652484,1.87433104 C39.504504,1.25997774 37.798964,0.554301651 35.239594,0.554301651 C28.768824,0.554301651 26.151154,3.96423921 26.151154,8.38647605 L26.151154,13.3018559 C26.151154,19.1376588 28.974464,21.1965726 35.386404,21.1965726 C36.445874,21.1965726 37.357474,21.072595 37.857794,20.9801653 C40.357804,20.550118 40.946104,19.1985407 40.946104,16.5579284 L40.946104,9.46187106 L37.298644,9.46187106 L37.298644,16.2806392 Z" id="Fill-6" fill="#FFFFFF"></path>
                        <path d="M49.094536,12.2874535 L50.535606,6.57396776 C51.006776,4.73035439 51.124436,4.23997869 52.065186,4.23997869 C53.006466,4.23997869 53.125186,4.73035439 53.594766,6.57396776 L55.007216,12.2874535 L49.094536,12.2874535 Z M52.065186,0.553305402 C48.506236,0.553305402 47.771656,2.42846665 46.741866,6.3891083 L43.005896,20.8275178 L46.977716,20.8275178 L48.182936,15.9735733 L55.948496,15.9735733 L57.154776,20.8275178 L61.125006,20.8275178 L57.389566,6.3891083 C56.359776,2.42846665 55.624136,0.553305402 52.065186,0.553305402 Z" id="Fill-7" fill="#FFFFFF"></path>
                        <path d="M72.391004,10.1378811 L68.479074,7.7419032 C67.273324,7.0035723 66.860454,6.60507286 66.860454,5.83685449 C66.860454,4.70057762 67.714814,4.39395444 69.655144,4.39395444 C71.774084,4.39395444 73.420264,4.76201295 75.068564,5.59166665 L75.068564,1.72068737 C73.567604,1.04600568 72.214514,0.553969568 69.655144,0.553969568 C64.772784,0.553969568 62.801714,2.33559414 62.801714,5.71509078 C62.801714,8.10996171 63.802354,9.67683937 65.773954,10.875105 L69.538544,13.1792067 C71.391424,14.3149301 71.892274,14.7759718 71.892274,15.6975017 C71.892274,16.9572027 71.009824,17.3562556 68.686304,17.3562556 C66.067044,17.3562556 64.214694,16.8337786 62.508094,16.1269956 L62.508094,19.9974214 C63.949694,20.6427691 65.832254,21.1962405 68.625884,21.1962405 C73.979414,21.1962405 75.950484,19.1677677 75.950484,15.6975017 C75.950484,12.9019175 74.656224,11.5204527 72.391004,10.1378811" id="Fill-8" fill="#FFFFFF"></path>
                        <path d="M87.421963,10.3835117 L83.011303,10.3835117 L83.011303,5.62255035 C83.011303,4.97720265 83.275773,4.7010204 83.893753,4.7010204 L87.421963,4.7010204 C89.334203,4.7010204 89.981863,5.68398568 89.981863,7.55803999 C89.981863,9.43043388 89.334203,10.3835117 87.421963,10.3835117 M87.421963,0.861035524 L82.599493,0.861035524 C80.128103,0.861035524 79.068633,1.96687147 79.068633,4.54770881 L79.068633,20.8269644 L83.011303,20.8269644 L83.011303,14.2234966 L87.421963,14.2234966 C92.098683,14.2234966 93.923473,11.5502295 93.923473,7.55803999 C93.923473,3.56419005 92.098683,0.861035524 87.421963,0.861035524" id="Fill-9" fill="#FFFFFF"></path>
                        <path d="M99.600568,12.2874535 L101.041638,6.57396776 C101.511748,4.73035439 101.629408,4.23997869 102.571218,4.23997869 C103.512498,4.23997869 103.630688,4.73035439 104.100798,6.57396776 L105.512188,12.2874535 L99.600568,12.2874535 Z M102.571218,0.553305402 C99.012268,0.553305402 98.276628,2.42846665 97.247898,6.3891083 L93.511928,20.8275178 L97.482158,20.8275178 L98.687908,15.9735733 L106.452938,15.9735733 L107.659218,20.8275178 L111.631038,20.8275178 L107.894538,6.3891083 C106.866338,2.42846665 106.130168,0.553305402 102.571218,0.553305402 Z" id="Fill-10" fill="#FFFFFF"></path>
                        <path d="M113.013596,8.57122481 L113.013596,13.4854978 C113.013596,19.0146775 115.984776,21.1964619 121.337776,21.1964619 C123.690976,21.1964619 124.985236,20.7951951 126.337796,19.9362074 L126.337796,16.127217 C125.368956,16.7725647 123.720126,17.356477 121.513736,17.356477 C117.867866,17.356477 117.072336,15.6052934 117.072336,13.4854978 L117.072336,8.57122481 C117.072336,5.7457531 118.308296,4.39417583 121.367456,4.39417583 C123.661826,4.39417583 125.368956,5.10040539 126.337796,5.68431776 L126.337796,1.87422035 C124.956086,1.10655546 123.808106,0.554190956 121.367456,0.554190956 C115.661476,0.554190956 113.013596,3.6873928 113.013596,8.57122481" id="Fill-11" fill="#FFFFFF"></path>
                        <path d="M129.33908,4.54721068 L129.33908,17.1408999 C129.33908,19.7200768 130.39855,20.8275732 132.86835,20.8275732 L143.01732,20.8275732 L143.01732,16.9875883 L134.16314,16.9875883 C133.54569,16.9875883 133.28069,16.7108526 133.28069,16.0655049 L133.28069,12.5332501 L141.84072,12.5332501 L141.84072,8.69381874 L133.28069,8.69381874 L133.28069,5.62315917 C133.28069,4.97670452 133.54569,4.70052227 134.16314,4.70052227 L143.01732,4.70052227 L143.01732,0.861090872 L132.86835,0.861090872 C130.39855,0.861090872 129.33908,1.96692682 129.33908,4.54721068" id="Fill-12" fill="#FFFFFF"></path>
                        <path d="M155.429655,10.1378811 L151.517725,7.7419032 C150.311445,7.0035723 149.898575,6.60507286 149.898575,5.83685449 C149.898575,4.70057762 150.752935,4.39395444 152.693795,4.39395444 C154.812735,4.39395444 156.458385,4.76201295 158.106685,5.59166665 L158.106685,1.72068737 C156.605725,1.04600568 155.253165,0.553969568 152.693795,0.553969568 C147.811435,0.553969568 145.840365,2.33559414 145.840365,5.71509078 C145.840365,8.10996171 146.841005,9.67683937 148.812075,10.875105 L152.576135,13.1792067 C154.429015,14.3149301 154.930395,14.7759718 154.930395,15.6975017 C154.930395,16.9572027 154.047415,17.3562556 151.723365,17.3562556 C149.105695,17.3562556 147.252285,16.8337786 145.546215,16.1269956 L145.546215,19.9974214 C146.987815,20.6427691 148.870905,21.1962405 151.664535,21.1962405 C157.018065,21.1962405 158.989135,19.1677677 158.989135,15.6975017 C158.989135,12.9019175 157.694345,11.5204527 155.429655,10.1378811" id="Fill-13" fill="#FFFFFF"></path>
                    </g>
                </g>
            </g>
        </g>
    </g>
</svg>