<?xml version="1.0" encoding="utf-8"?>
<!-- Generator: Adobe Illustrator 15.1.0, SVG Export Plug-In . SVG Version: 6.00 Build 0)  -->
<!DOCTYPE svg PUBLIC "-//W3C//DTD SVG 1.1//EN" "http://www.w3.org/Graphics/SVG/1.1/DTD/svg11.dtd">
<svg version="1.1" id="Layer_1" xmlns="http://www.w3.org/2000/svg" xmlns:xlink="http://www.w3.org/1999/xlink" x="0px" y="0px"
	 width="83.056px" height="17.575px" viewBox="0 0 83.056 17.575" enable-background="new 0 0 83.056 17.575" xml:space="preserve">
<g>
	<path fill="#BCBEC0" d="M17.863,17.464h-8.6c-1.105,0-2-0.896-2-2c0-1.105,0.895-2,2-2h8.6c1.105,0,2,0.895,2,2
		C19.863,16.568,18.969,17.464,17.863,17.464z"/>
	<path fill="#F57E20" d="M28.547,17.464H24.51c-1.104,0-2-0.896-2-2c0-1.105,0.896-2,2-2h4.037c1.104,0,2,0.895,2,2
		C30.547,16.568,29.65,17.464,28.547,17.464z"/>
	<path fill="#EC008C" d="M29.643,10.916H16.932c-1.104,0-2-0.896-2-2.001s0.896-2,2-2h12.711c1.104,0,2,0.896,2,2
		S30.746,10.916,29.643,10.916z"/>
	<g>
		<path d="M49.367,0.374l-3.076,6.415c-0.211,0.446-0.631,1.367-1.342,1.683c0.764,0.368,1.158,1.156,1.395,1.63l3.549,7.361h-3.943
			l-2.551-5.783c-0.604-1.395-0.789-1.604-1.367-1.604s-0.762,0.209-1.367,1.604l-2.549,5.783H34.17l3.551-7.361
			c0.236-0.474,0.631-1.262,1.367-1.63c-0.684-0.315-1.105-1.236-1.314-1.683l-3.076-6.415h3.943l2.023,4.837
			c0.578,1.394,0.789,1.604,1.367,1.604s0.789-0.211,1.367-1.604l2.025-4.837H49.367z"/>
		<path d="M67.273,17.462h-3.549l-1.078-4.154h-6.939l-1.078,4.154H51.08l3.338-12.356c0.92-3.392,1.578-4.995,4.76-4.995
			c3.18,0,3.838,1.604,4.758,4.995L67.273,17.462z M56.521,10.154h5.285l-1.264-4.891c-0.42-1.577-0.525-1.998-1.365-1.998
			c-0.842,0-0.947,0.421-1.367,1.998L56.521,10.154z"/>
		<path d="M77.109,0.374c4.182,0,5.811,2.313,5.811,5.731s-1.629,5.705-5.811,5.705h-3.943v5.652h-3.523V3.528
			c0-2.208,0.947-3.154,3.156-3.154H77.109z M73.955,3.66c-0.553,0-0.789,0.236-0.789,0.789v4.075h3.943
			c1.709,0,2.287-0.815,2.287-2.419S78.818,3.66,77.109,3.66H73.955z"/>
	</g>
	<linearGradient id="SVGID_1_" gradientUnits="userSpaceOnUse" x1="4.9805" y1="2.4106" x2="31.6426" y2="2.4106">
		<stop  offset="0" style="stop-color:#00C0F3"/>
		<stop  offset="1" style="stop-color:#006DB8"/>
	</linearGradient>
	<path fill="url(#SVGID_1_)" d="M29.643,4.411H6.98c-1.105,0-2-0.896-2-2s0.895-2,2-2h22.662c1.104,0,2,0.896,2,2
		S30.746,4.411,29.643,4.411z"/>
	<path fill="#BFD730" d="M10.012,10.916H2.137c-1.105,0-2-0.896-2-2.001s0.895-2,2-2h7.875c1.104,0,2,0.896,2,2
		S11.115,10.916,10.012,10.916z"/>
</g>
</svg>
