<?xml version="1.0" encoding="UTF-8" standalone="no"?>
<!-- Created with Inkscape (http://www.inkscape.org/) -->

<svg
   width="7.6549506mm"
   height="7.9824309mm"
   viewBox="0 0 7.6549506 7.9824309"
   version="1.1"
   id="svg5"
   xmlns="http://www.w3.org/2000/svg"
   xmlns:svg="http://www.w3.org/2000/svg">
  <defs
     id="defs2" />
  <g
     id="layer1"
     transform="translate(-116.64143,-49.04413)">
    <g
       id="g3255"
       transform="matrix(0.20238208,0,0,0.20238208,93.227173,41.25293)">
      <g
         id="g3248">
        <path
           style="fill:#000000;fill-opacity:1;stroke-width:0.522672"
           id="rect2892"
           width="18.059654"
           height="17.797741"
           x="125.57564"
           y="50.259819"
           d="m 127.6923,50.259819 13.82633,0 a 2.1166667,2.1166667 45 0 1 2.11666,2.116667 v 13.564407 a 2.1166667,2.1166667 135 0 1 -2.11666,2.116667 H 127.6923 a 2.1166667,2.1166667 45 0 1 -2.11666,-2.116667 l 0,-13.564407 a 2.1166667,2.1166667 135 0 1 2.11666,-2.116667 z" />
        <rect
           style="fill:#000000;fill-opacity:1;stroke-width:0.05635"
           id="rect2892-4"
           width="1.7032789"
           height="2.193383"
           x="128.21335"
           y="48.379776" />
        <rect
           style="fill:#000000;fill-opacity:1;stroke-width:0.05635"
           id="rect2892-4-2"
           width="1.7032789"
           height="2.193383"
           x="139.3056"
           y="48.379776" />
      </g>
      <rect
         style="fill:#ffffff;fill-opacity:1;stroke-width:0.374278"
         id="rect3145"
         width="14.539001"
         height="11.244907"
         x="127.33597"
         y="54.673851" />
    </g>
  </g>
</svg>
