<svg xmlns="http://www.w3.org/2000/svg" xmlns:xlink="http://www.w3.org/1999/xlink" viewBox="0 0 32.17 37.95"><defs><style>.cls-1{fill:#006db8;}.cls-2{fill:#006db8;}.cls-3{fill:#006db8;}.cls-4{fill:#006db8;}.cls-5{fill:#006db8;}.cls-6{fill:#006db8;}.cls-7{fill:#006db8;}.cls-8{fill:#006db8;}</style><linearGradient id="New_Gradient_Swatch_3_copy" x1="0.15" y1="24.89" x2="32.18" y2="24.89" gradientUnits="userSpaceOnUse"><stop offset="0" stop-color="#0b6eb4"/><stop offset="0.28" stop-color="#127fc1"/><stop offset="0.84" stop-color="#25ace2"/><stop offset="1" stop-color="#2bbaed"/></linearGradient><linearGradient id="New_Gradient_Swatch_3_copy-2" x1="0.15" y1="18.6" x2="32.18" y2="18.6" xlink:href="#New_Gradient_Swatch_3_copy"/><linearGradient id="New_Gradient_Swatch_3_copy-3" x1="0.15" y1="27.58" x2="32.18" y2="27.58" xlink:href="#New_Gradient_Swatch_3_copy"/><linearGradient id="New_Gradient_Swatch_3_copy-4" x1="0.15" y1="23.14" x2="32.18" y2="23.14" xlink:href="#New_Gradient_Swatch_3_copy"/><linearGradient id="New_Gradient_Swatch_3_copy-5" x1="0.15" y1="8.29" x2="32.18" y2="8.29" xlink:href="#New_Gradient_Swatch_3_copy"/><linearGradient id="New_Gradient_Swatch_3_copy-6" x1="0.15" y1="18.7" x2="32.18" y2="18.7" xlink:href="#New_Gradient_Swatch_3_copy"/><linearGradient id="New_Gradient_Swatch_3_copy-7" x1="0.15" y1="4.17" x2="32.18" y2="4.17" xlink:href="#New_Gradient_Swatch_3_copy"/><linearGradient id="New_Gradient_Swatch_3_copy-9" x1="0.15" y1="6.78" x2="32.18" y2="6.78" xlink:href="#New_Gradient_Swatch_3_copy"/></defs><title>Copy Paste</title><g id="Layer_2" data-name="Layer 2"><g id="Layer_1-2" data-name="Layer 1"><path class="cls-1" d="M31.6,38H12.26a.56.56,0,0,1-.56-.57v-25a.56.56,0,0,1,.56-.57H31.6a.56.56,0,0,1,.57.57v25A.56.56,0,0,1,31.6,38ZM12.83,36.81H31V13H12.83Z"/><path class="cls-2" d="M28.22,19.17H15.64a.57.57,0,0,1,0-1.13H28.22a.57.57,0,1,1,0,1.13Z"/><path class="cls-3" d="M28.22,28.14H15.64a.57.57,0,0,1,0-1.13H28.22a.57.57,0,1,1,0,1.13Z"/><path class="cls-4" d="M24.58,23.7H15.64a.57.57,0,0,1,0-1.13h8.94a.57.57,0,1,1,0,1.13Z"/><path class="cls-5" d="M25.17,11.31a.57.57,0,0,1-.57-.57V6.41H20.27a.57.57,0,0,1,0-1.14h4.9a.57.57,0,0,1,.57.57v4.9A.56.56,0,0,1,25.17,11.31Z"/><path class="cls-6" d="M10.42,32.12H3.71a.56.56,0,0,1-.56-.57V5.84a.57.57,0,0,1,.56-.57H8.62a.57.57,0,0,1,0,1.14H4.28V31h6.14a.57.57,0,1,1,0,1.13Z"/><path class="cls-7" d="M20.13,8.35H8.85a.56.56,0,0,1-.57-.57V.57A.56.56,0,0,1,8.85,0H20.13a.57.57,0,0,1,.57.57V7.78A.57.57,0,0,1,20.13,8.35ZM9.41,7.21H19.56V1.13H9.41Z"/><path class="cls-2" d="M10.35,34.9H2.9A2.91,2.91,0,0,1,0,32V5.21a2.9,2.9,0,0,1,2.9-2.9H8.75a.57.57,0,1,1,0,1.14H2.9A1.77,1.77,0,0,0,1.13,5.21V32A1.77,1.77,0,0,0,2.9,33.76h7.45a.57.57,0,1,1,0,1.14Z"/><path class="cls-8" d="M28.41,11.24a.57.57,0,0,1-.57-.57V5.21a1.76,1.76,0,0,0-1.76-1.76h-5.9a.57.57,0,0,1,0-1.14h5.9A2.91,2.91,0,0,1,29,5.21v5.46A.57.57,0,0,1,28.41,11.24Z"/></g></g></svg>