<?xml version="1.0" encoding="utf-8"?>
<!-- Generator: Adobe Illustrator 23.0.3, SVG Export Plug-In . SVG Version: 6.00 Build 0)  -->
<svg version="1.1" id="Layer_1" xmlns="http://www.w3.org/2000/svg" xmlns:xlink="http://www.w3.org/1999/xlink" x="0px" y="0px"
	 viewBox="0 0 68.78 67.59" style="enable-background:new 0 0 68.78 67.59;" xml:space="preserve">
<style type="text/css">
	.st0{fill:none;stroke:#BED731;stroke-width:1.4173;stroke-linecap:round;stroke-miterlimit:10;}
	.st1{fill:none;stroke:#BED731;stroke-width:1.4173;stroke-linecap:round;stroke-linejoin:round;stroke-miterlimit:10;}
</style>
<g>
	<line class="st0" x1="29.38" y1="50.37" x2="39.81" y2="50.37"/>
	<line class="st0" x1="29.38" y1="53.66" x2="39.81" y2="53.66"/>
	<line class="st0" x1="29.38" y1="56.94" x2="39.81" y2="56.94"/>
	<path class="st0" d="M49.55,31.89c0-8.84-7.66-15.88-16.7-14.86c-6.87,0.77-12.39,6.33-13.13,13.2c-0.65,6.01,2.27,11.4,6.91,14.32
		c1.27,0.8,2.06,2.17,2.06,3.67v6.21c0,1.53,0.57,3.01,1.61,4.14l1.48,1.63h5.4l1.48-1.63c1.03-1.13,1.61-2.61,1.61-4.14v-6.08
		c0-1.52,0.81-2.9,2.1-3.69C46.68,42.02,49.55,37.29,49.55,31.89z"/>
	<line class="st0" x1="34.39" y1="13.29" x2="34.39" y2="7.39"/>
	<line class="st0" x1="40.59" y1="14.33" x2="42.63" y2="8.8"/>
	<line class="st0" x1="46.05" y1="17.45" x2="49.88" y2="12.97"/>
	<line class="st0" x1="50.09" y1="22.27" x2="55.23" y2="19.4"/>
	<line class="st0" x1="52.2" y1="28.19" x2="58.02" y2="27.28"/>
	<line class="st0" x1="28.19" y1="14.33" x2="26.15" y2="8.8"/>
	<line class="st0" x1="22.73" y1="17.45" x2="18.9" y2="12.97"/>
	<line class="st0" x1="18.69" y1="22.27" x2="13.55" y2="19.4"/>
	<line class="st0" x1="16.57" y1="28.19" x2="10.75" y2="27.28"/>
	<path class="st1" d="M34.46,20.8c6.07,0,10.98,4.92,10.98,10.98"/>
</g>
</svg>
