<svg xmlns="http://www.w3.org/2000/svg" xmlns:xlink="http://www.w3.org/1999/xlink" viewBox="0 0 34.02 33.96"><defs><style>.cls-1{fill:url(#New_Gradient_Swatch);}.cls-2{fill:url(#New_Gradient_Swatch-2);}.cls-3{fill:url(#New_Gradient_Swatch-3);}.cls-4{fill:url(#New_Gradient_Swatch-4);}</style><linearGradient id="New_Gradient_Swatch" x1="-0.68" y1="28.67" x2="28.82" y2="-2.83" gradientUnits="userSpaceOnUse"><stop offset="0" stop-color="#096eb5"/><stop offset="0.28" stop-color="#107fc2"/><stop offset="0.83" stop-color="#22ace3"/><stop offset="1" stop-color="#28bbee"/></linearGradient><linearGradient id="New_Gradient_Swatch-2" x1="-9.46" y1="20.44" x2="20.04" y2="-11.06" xlink:href="#New_Gradient_Swatch"/><linearGradient id="New_Gradient_Swatch-3" x1="3.71" y1="32.78" x2="33.21" y2="1.28" xlink:href="#New_Gradient_Swatch"/><linearGradient id="New_Gradient_Swatch-4" x1="3.66" y1="32.73" x2="33.16" y2="1.23" xlink:href="#New_Gradient_Swatch"/></defs><title>On-Premises</title><g id="Layer_2" data-name="Layer 2"><g id="Layer_1-2" data-name="Layer 1"><path class="cls-1" d="M9.2,34H3.54a.71.71,0,0,1-.71-.66L2.05,22.73A2.1,2.1,0,0,1,.6,22,2.4,2.4,0,0,1,0,20.15L1,11.93A3.74,3.74,0,0,1,4.56,8.49H8.17a3.74,3.74,0,0,1,3.61,3.44l.94,8.22A2.4,2.4,0,0,1,12.14,22a2.1,2.1,0,0,1-1.45.72L9.9,33.31A.71.71,0,0,1,9.2,34Zm-5-1.42H8.54L9.32,22a.71.71,0,0,1,.71-.66h.54a.7.7,0,0,0,.52-.25,1,1,0,0,0,.23-.77l-.94-8.22a2.33,2.33,0,0,0-2.2-2.18H4.56a2.33,2.33,0,0,0-2.2,2.18l-.94,8.22a1,1,0,0,0,.23.77.7.7,0,0,0,.52.25h.54a.71.71,0,0,1,.71.66Z"/><path class="cls-2" d="M6.37,7.08A3.54,3.54,0,1,1,9.91,3.54,3.54,3.54,0,0,1,6.37,7.08Zm0-5.66A2.12,2.12,0,1,0,8.49,3.54,2.12,2.12,0,0,0,6.37,1.42Z"/><path class="cls-3" d="M12.49,32.49a2.68,2.68,0,0,1-.47,0,.71.71,0,0,1,.25-1.39,1.24,1.24,0,0,0,.93-.21,1.27,1.27,0,0,0,.52-.84,2.66,2.66,0,0,1,3-2.24,10,10,0,0,0,2.11,0,2.69,2.69,0,0,1,3,2.24,1.27,1.27,0,0,0,.64.92,1.24,1.24,0,0,0,1.1,0,14.78,14.78,0,0,0,3.2-1.89,1.34,1.34,0,0,0,.52-1,1.29,1.29,0,0,0-.46-1,2.75,2.75,0,0,1-.42-3.71,11,11,0,0,0,1.07-1.91,2.67,2.67,0,0,1,3.38-1.49,1.18,1.18,0,0,0,1.06-.09,1.33,1.33,0,0,0,.63-1,15.25,15.25,0,0,0,0-3.82,1.33,1.33,0,0,0-.63-1,1.17,1.17,0,0,0-1-.09,2.67,2.67,0,0,1-3.4-1.49,11.12,11.12,0,0,0-1.07-1.91,2.75,2.75,0,0,1,.42-3.71,1.3,1.3,0,0,0,.46-1,1.34,1.34,0,0,0-.52-1,14.72,14.72,0,0,0-3.2-1.9,1.24,1.24,0,0,0-1.1,0,1.27,1.27,0,0,0-.64.92,2.7,2.7,0,0,1-3,2.24,9.78,9.78,0,0,0-2.11,0,2.67,2.67,0,0,1-3-2.24A1.24,1.24,0,0,0,13.13,3a1.26,1.26,0,0,0-1.05-.11.71.71,0,1,1-.46-1.34,2.66,2.66,0,0,1,3.5,2.1,1.26,1.26,0,0,0,1.42,1.06,11.36,11.36,0,0,1,2.41,0,1.27,1.27,0,0,0,1.42-1.06,2.67,2.67,0,0,1,3.7-2,16.09,16.09,0,0,1,3.51,2.08,2.75,2.75,0,0,1,1.06,2.13,2.71,2.71,0,0,1-1,2.13,1.35,1.35,0,0,0-.18,1.81,12.41,12.41,0,0,1,1.21,2.15,1.26,1.26,0,0,0,1.58.74,2.6,2.6,0,0,1,2.29.19,2.73,2.73,0,0,1,1.31,2,16.67,16.67,0,0,1,0,4.18,2.73,2.73,0,0,1-1.3,2,2.59,2.59,0,0,1-2.28.2,1.26,1.26,0,0,0-1.59.73,12.35,12.35,0,0,1-1.21,2.15,1.35,1.35,0,0,0,.18,1.81,2.71,2.71,0,0,1,1,2.13,2.75,2.75,0,0,1-1.06,2.13,16.15,16.15,0,0,1-3.51,2.08,2.67,2.67,0,0,1-3.7-2,1.27,1.27,0,0,0-1.42-1.06,11.36,11.36,0,0,1-2.41,0,1.26,1.26,0,0,0-1.42,1.06A2.67,2.67,0,0,1,14,32,2.63,2.63,0,0,1,12.49,32.49Z"/><path class="cls-4" d="M18.4,24.06a7,7,0,0,1-4.28-1.47A.71.71,0,0,1,15,21.46a5.6,5.6,0,0,0,3.42,1.18,5.66,5.66,0,1,0-3.93-9.72.71.71,0,0,1-1-1A7.07,7.07,0,1,1,18.4,24.06Z"/></g></g></svg>