<svg xmlns="http://www.w3.org/2000/svg" xmlns:xlink="http://www.w3.org/1999/xlink" viewBox="0 0 36.85 28.92"><defs><style>.cls-1{fill:url(#New_Gradient_Swatch_2);}.cls-2{fill:url(#New_Gradient_Swatch_2-2);}.cls-3{fill:url(#New_Gradient_Swatch_2-3);}</style><linearGradient id="New_Gradient_Swatch_2" x1="2.88" y1="25.98" x2="32.36" y2="-3.23" gradientUnits="userSpaceOnUse"><stop offset="0" stop-color="#086eb6"/><stop offset="0.27" stop-color="#0e7fc2"/><stop offset="0.81" stop-color="#1face3"/><stop offset="1" stop-color="#25bdef"/></linearGradient><linearGradient id="New_Gradient_Swatch_2-2" x1="2.91" y1="26.01" x2="32.39" y2="-3.2" xlink:href="#New_Gradient_Swatch_2"/><linearGradient id="New_Gradient_Swatch_2-3" x1="12.72" y1="35.91" x2="42.19" y2="6.7" xlink:href="#New_Gradient_Swatch_2"/></defs><title>Process</title><g id="Layer_2" data-name="Layer 2"><g id="Layer_1-2" data-name="Layer 1"><g id="_Group_" data-name="&lt;Group&gt;"><g id="_Group_2" data-name="&lt;Group&gt;"><path class="cls-1" d="M10,28.92a1,1,0,0,1-.25,0L6,27.91a1.06,1.06,0,0,1-.78-1.08l.27-2.3a7.59,7.59,0,0,1-1-1l-2.28.29a1,1,0,0,1-1.12-.74L0,19.32A1,1,0,0,1,.6,18.1l2.13-.92c0-.25.09-.49.14-.7a7,7,0,0,1,.21-.67L1.7,14a1,1,0,0,1,.1-1.36L4.53,9.86a1,1,0,0,1,1.34-.11l1.86,1.38a8,8,0,0,1,1.36-.38L10,8.63A1.07,1.07,0,0,1,11.18,8l3.76,1a1.06,1.06,0,0,1,.78,1.08l-.27,2.3a7.62,7.62,0,0,1,1,1l2.28-.29a1,1,0,0,1,1.12.74l1,3.75a1,1,0,0,1-.56,1.22l-2.13.92a7.06,7.06,0,0,1-.14.7c-.06.22-.13.44-.21.67l1.39,1.83a1,1,0,0,1-.1,1.36L16.4,27.06a1,1,0,0,1-1.34.11L13.21,25.8a8,8,0,0,1-1.36.38L11,28.29A1.08,1.08,0,0,1,10,28.92ZM6.31,26.86l3.67,1,1-2.34a.55.55,0,0,1,.43-.33,6.89,6.89,0,0,0,1.69-.47.55.55,0,0,1,.54.06l2,1.52,2.66-2.68-1.54-2A.55.55,0,0,1,16.7,21a6.43,6.43,0,0,0,.28-.83,6.76,6.76,0,0,0,.16-.87.55.55,0,0,1,.33-.44l2.34-1-1-3.64-2.52.32a.55.55,0,0,1-.51-.21,6.58,6.58,0,0,0-1.24-1.24.55.55,0,0,1-.21-.5l.29-2.51L11,9.11l-1,2.34a.55.55,0,0,1-.43.33,6.91,6.91,0,0,0-1.69.47.55.55,0,0,1-.54-.06l-2-1.52L2.61,13.36l1.54,2a.55.55,0,0,1,.07.54,6.47,6.47,0,0,0-.28.83,6.9,6.9,0,0,0-.16.88.55.55,0,0,1-.33.44l-2.34,1,1,3.64,2.52-.32a.56.56,0,0,1,.51.21,6.58,6.58,0,0,0,1.24,1.24.55.55,0,0,1,.21.5Zm12-3.26h0Zm0-.07h0ZM1.1,19h0ZM19.83,17.9h0ZM2.58,13.4h0Zm7.89,8.48a3.43,3.43,0,0,1-.87-.11,3.39,3.39,0,1,1,.87.11Zm0-5.72a2.31,2.31,0,1,0,.59.08A2.33,2.33,0,0,0,10.46,16.15Z"/></g><g id="_Group_3" data-name="&lt;Group&gt;"><path class="cls-2" d="M24.44,11.39H22.38a.81.81,0,0,1-.8-.68l-.15-1.07A4,4,0,0,1,21,9.39l-1,.4a.82.82,0,0,1-1-.36L18,7.66a.82.82,0,0,1,.17-1L19,6c0-.08,0-.17,0-.26s0-.17,0-.26l-.86-.67a.8.8,0,0,1-.21-1L19,2a.82.82,0,0,1,1-.36L21,2a4.79,4.79,0,0,1,.44-.25L21.58.69a.82.82,0,0,1,.8-.69h2.06a.8.8,0,0,1,.79.72l.15,1a4,4,0,0,1,.45.26l1-.4a.82.82,0,0,1,1,.36l1,1.77a.82.82,0,0,1-.17,1l-.87.68c0,.08,0,.17,0,.26s0,.17,0,.26l.86.67,0,0a.82.82,0,0,1,.18,1l-1,1.79a.82.82,0,0,1-1,.36l-1-.41a4.5,4.5,0,0,1-.44.25l-.15,1.07A.82.82,0,0,1,24.44,11.39Zm-1.81-1.1h1.56l.16-1.1a.55.55,0,0,1,.33-.43,3.26,3.26,0,0,0,.74-.43A.55.55,0,0,1,26,8.25L27,8.67l.78-1.34-.9-.7a.55.55,0,0,1-.21-.5,3.44,3.44,0,0,0,0-.44,2.17,2.17,0,0,0,0-.4.55.55,0,0,1,.2-.53l.89-.7L27,2.72l-1,.42a.55.55,0,0,1-.54-.07,3,3,0,0,0-.74-.43.55.55,0,0,1-.35-.43l-.16-1.1H22.63l-.16,1.1a.55.55,0,0,1-.33.43,3.59,3.59,0,0,0-.76.44.55.55,0,0,1-.54.07l-1-.42L19,4.06l.89.7a.55.55,0,0,1,.21.5,3.6,3.6,0,0,0,0,.87.55.55,0,0,1-.21.5l-.89.7.78,1.34,1-.42a.55.55,0,0,1,.54.07,3,3,0,0,0,.74.43.55.55,0,0,1,.35.43Zm-2.7-1.42h0ZM26.88,2.5h0ZM24.14.84v0ZM23.41,8A2.27,2.27,0,1,1,25.68,5.7,2.27,2.27,0,0,1,23.41,8Zm0-3.43A1.17,1.17,0,1,0,24.58,5.7,1.17,1.17,0,0,0,23.41,4.53Z"/></g><g id="_Group_4" data-name="&lt;Group&gt;"><path class="cls-3" d="M28.81,27a.87.87,0,0,1-.25,0l-2.63-.76a.89.89,0,0,1-.64-1l.21-1.51a5.18,5.18,0,0,1-.59-.62l-1.52.15a.92.92,0,0,1-1-.69l-.65-2.64a.91.91,0,0,1,.5-1l1.46-.59c0-.14.06-.27.1-.41s.08-.27.13-.4l-.9-1.25a.89.89,0,0,1,.1-1.15l2-1.9a.91.91,0,0,1,1.15-.07l1.22,1a6.09,6.09,0,0,1,.83-.2L29,12.46A.91.91,0,0,1,30.07,12l2.63.76a.88.88,0,0,1,.62,1l-.21,1.47a5.15,5.15,0,0,1,.59.62l1.52-.15a.92.92,0,0,1,1,.69L36.83,19a.91.91,0,0,1-.5,1l-1.45.58c0,.13-.06.27-.1.42s-.09.28-.14.4l.91,1.25,0,0a.91.91,0,0,1-.12,1.12l-2,1.9a.91.91,0,0,1-1.16.07l-1.22-1a5.71,5.71,0,0,1-.82.2l-.63,1.39A.91.91,0,0,1,28.81,27Zm-2.4-1.81,2.29.67.68-1.49a.55.55,0,0,1,.43-.32A4.51,4.51,0,0,0,31,23.74a.55.55,0,0,1,.55.08l1.31,1,1.72-1.65-1-1.35a.55.55,0,0,1-.06-.54,4.78,4.78,0,0,0,.22-.56,3,3,0,0,0,.12-.56.55.55,0,0,1,.34-.46l1.54-.62-.57-2.31L33.51,17a.55.55,0,0,1-.5-.22,4.1,4.1,0,0,0-.82-.86.55.55,0,0,1-.21-.51l.23-1.62-2.28-.66-.68,1.49a.55.55,0,0,1-.43.32,4.93,4.93,0,0,0-1.17.29.55.55,0,0,1-.54-.08l-1.3-1-1.72,1.65,1,1.35a.55.55,0,0,1,.06.54,4.88,4.88,0,0,0-.2.57,5,5,0,0,0-.13.59.55.55,0,0,1-.34.42l-1.54.62.57,2.31L25.11,22a.56.56,0,0,1,.5.22,4.11,4.11,0,0,0,.82.86.55.55,0,0,1,.21.51Zm-2.9-2.89h0Zm11.6-5.66h0Zm-2.87-3.07v0Zm-2.91,8.74a2.83,2.83,0,1,1,1.36-.35A2.81,2.81,0,0,1,29.32,22.29Zm0-4.57a1.73,1.73,0,0,0-.48,3.4h0a1.73,1.73,0,1,0,1-3.33A1.75,1.75,0,0,0,29.31,17.73Z"/></g></g></g></g></svg>