<svg xmlns="http://www.w3.org/2000/svg" xmlns:xlink="http://www.w3.org/1999/xlink" viewBox="0 0 530.92 311.25"><defs><style>.cls-1{fill:#bed630;}.cls-2{fill:#f6921e;}.cls-3{fill:#eb008b;}.cls-4{fill:url(#New_Gradient_Swatch);}.cls-5{fill:url(#New_Gradient_Swatch-2);}</style><linearGradient id="New_Gradient_Swatch" x1="20.13" y1="288.02" x2="238.11" y2="288.02" gradientUnits="userSpaceOnUse"><stop offset="0" stop-color="#006db8"/><stop offset="1" stop-color="#00c0f3"/></linearGradient><linearGradient id="New_Gradient_Swatch-2" x1="0" y1="167.96" x2="116.02" y2="167.96" xlink:href="#New_Gradient_Swatch"/></defs><title>gigaspaces cloud</title><g id="Layer_2" data-name="Layer 2"><g id="Layer_1-2" data-name="Layer 1"><path d="M223.72,232.72c.05-3.57,2.14-5.5,6.06-5.48a121.66,121.66,0,0,1,15.18.53c7.41,1,10.79,4.51,11.64,11.26a52.5,52.5,0,0,1,.31,7.09c0,4.86,0,9.72-.33,14.56a11.14,11.14,0,0,1-5.27,9.2,19,19,0,0,1-9.19,2.6c-3.72.21-7.47.17-11.21.24h-.27c-5.09-.23-6.87-1.77-7-6.39C223.57,260.86,223.63,238.46,223.72,232.72Zm4.09,17.13c0,5.1,0,10.2,0,15.29,0,3.17,1,4,4.42,4,2.37,0,4.74.1,7.08-.06a38.94,38.94,0,0,0,6.57-.93c3.55-.89,5.68-3.17,6.19-6.42,1.12-7.23.56-14.5.37-21.75a12,12,0,0,0-.27-1.55c-.7-3.94-3.3-6.32-7.56-7.15-4.75-.93-9.57-.71-14.37-.49a2.29,2.29,0,0,0-2.23,1.94,10.46,10.46,0,0,0-.19,2.16C227.8,239.89,227.81,244.87,227.81,249.85Z"/><path d="M134.89,238.9c1.07-8.15,4.8-11.08,13.45-12,4.63-.51,9.27-.41,13.66,1.31a10.6,10.6,0,0,1,6.89,7.34,32.44,32.44,0,0,1,1,6.89c.15,5.22.08,10.44,0,15.66a18.2,18.2,0,0,1-1.87,8.32c-1.93,3.7-5.42,5.55-9.68,6.3a35.88,35.88,0,0,1-12.23,0c-6.65-1.12-10.55-4.91-11.22-11.21C134.53,257.65,134.4,242.51,134.89,238.9ZM165.65,250h0c0-2.7.1-5.39,0-8.08a29.53,29.53,0,0,0-.79-5.35,6.8,6.8,0,0,0-4.05-4.84,22.6,22.6,0,0,0-16-.48c-4.22,1.33-5.71,4.7-5.83,8.34-.22,6.9-.26,13.82,0,20.71.21,5.16,3.14,8.18,8.18,8.92a38.94,38.94,0,0,0,7.71.28c8.6-.49,10.36-4.69,10.72-10.35C165.81,256.13,165.65,253.07,165.65,250Z"/><path d="M209,227.21h4.25v1.2c0,10.36,0,20.72,0,31.07a19.83,19.83,0,0,1-.74,5.47c-1.22,4.11-4.47,6.51-8.93,7.48a32.81,32.81,0,0,1-15.45-.18c-5.27-1.38-8.41-5-8.84-9.91-.12-1.36-.18-2.73-.19-4.09q0-14.76,0-29.51v-1.49h4.23v1.47c0,10.16,0,20.32,0,30.47a16.41,16.41,0,0,0,.45,4.31c1,3.55,3.81,5.43,7.64,5.8a49.62,49.62,0,0,0,9.44,0c5.21-.5,8.09-3.72,8.14-8.74.07-6.67,0-13.33,0-20,0-4,0-7.95,0-11.92Z"/><path d="M96.76,267.3a24,24,0,0,1-.06,3c0,.33-.49.71-.86.89-3.87,1.84-8.09,2.07-12.35,2a23.5,23.5,0,0,1-10-1.91,11,11,0,0,1-6.23-7.17,23.54,23.54,0,0,1-.91-5.82c-.09-5.9-.08-11.8.11-17.7a18.56,18.56,0,0,1,1.25-5.64,11.49,11.49,0,0,1,8.55-7.32,30.91,30.91,0,0,1,18.47.84c1.1.41,1.48.76,1.48,2s0,1.26,0,1.79a66.88,66.88,0,0,0-7.54-1.73,38.48,38.48,0,0,0-8.24-.11c-5.63.57-8.62,3.45-9.44,8.64a23.79,23.79,0,0,0-.3,3.47c0,5.3-.06,10.61,0,15.91a15.37,15.37,0,0,0,.75,4.5c1.29,3.9,4.48,5.89,8.79,6.42A30.53,30.53,0,0,0,96,267.59C96.17,267.53,96.42,267.44,96.76,267.3Z"/><path d="M132,269.18v3.55h-1.45c-5.65,0-11.31,0-17,0a26,26,0,0,1-2.93-.17c-3.15-.38-4.85-2-5.13-4.83-.07-.8-.1-1.61-.1-2.41q0-18.44,0-36.87v-1.17h4.18v37.18c0,.49,0,1,0,1.45.16,2.36,1.14,3.25,3.77,3.26,5.61,0,11.23,0,16.84,0Z"/><path d="M91.94,188.84h8.8v16.41c0,6.11-1.42,9.23-7.45,10.23a36.2,36.2,0,0,1-6,.5C71.84,216,65,211.22,65,197.72V186.36c0-10.23,6.32-18.11,21.94-18.11A27.47,27.47,0,0,1,100,171.3v8.81c-2.62-1.49-8.38-3-12.78-3-9.24,0-12.43,2.62-12.43,9.94v11.36c0,4.83,2.06,8.67,12.57,8.67.92,0,2.13-.07,2.7-.14,1.49-.14,1.85-.86,1.85-2.35Z"/><path d="M109.69,169h9.52v46.16h-9.52Z"/><path d="M155.08,188.84h8.81v16.41c0,6.11-1.42,9.23-7.46,10.23a36.2,36.2,0,0,1-6,.5c-15.48,0-22.3-4.76-22.3-18.26V186.36c0-10.23,6.32-18.11,22-18.11a27.47,27.47,0,0,1,13.07,3.05v8.81c-2.63-1.49-8.38-3-12.79-3-9.23,0-12.43,2.62-12.43,9.94v11.36c0,4.83,2.06,8.67,12.57,8.67.93,0,2.14-.07,2.7-.14,1.5-.14,1.85-.86,1.85-2.35Z"/><path d="M212.61,215.12H203l-2.92-11.22H181.36l-2.91,11.22h-9.59l9-33.38c2.49-9.16,4.26-13.49,12.86-13.49s10.37,4.33,12.85,13.49Zm-29.05-19.74h14.28l-3.41-13.21c-1.13-4.26-1.42-5.4-3.69-5.4s-2.56,1.14-3.7,5.4Z"/><path d="M216,204.26a38.27,38.27,0,0,0,14.92,2.84c5.61,0,7.74-.92,7.74-3.84,0-2.13-1.21-3.19-5.68-5.82l-9.09-5.33c-4.76-2.77-7.18-6.39-7.18-11.93,0-7.81,4.76-11.93,16.55-11.93a29,29,0,0,1,13.07,2.69v9a28.49,28.49,0,0,0-13.07-2.77c-4.68,0-6.74.71-6.74,3.33,0,1.78,1,2.7,3.9,4.41l9.45,5.54c5.47,3.19,8.59,6.39,8.59,12.85,0,8-4.76,12.72-17.68,12.72A36.12,36.12,0,0,1,216,213.21Z"/><path d="M276.11,169c11.3,0,15.7,6.25,15.7,15.48s-4.4,15.41-15.7,15.41H265.46v15.27h-9.52V177.48c0-6,2.56-8.52,8.53-8.52Zm-8.52,8.88c-1.49,0-2.13.63-2.13,2.13v11h10.65c4.62,0,6.18-2.21,6.18-6.54s-1.56-6.6-6.18-6.6Z"/><path d="M334.57,215.12H325l-2.91-11.22H303.32l-2.91,11.22h-9.59l9-33.38c2.48-9.16,4.26-13.49,12.85-13.49s10.37,4.33,12.86,13.49Zm-29.05-19.74H319.8l-3.41-13.21c-1.14-4.26-1.42-5.4-3.7-5.4s-2.55,1.14-3.69,5.4Z"/><path d="M347.71,198.15c0,4.9,1.92,8.95,10.73,8.95,5.32,0,9.3-1.35,11.64-2.84v8.81c-3.26,2-6.39,2.91-12.07,2.91-12.93,0-20.1-5-20.1-17.83V186.78c0-11.29,6.39-18.53,20.17-18.53a21.79,21.79,0,0,1,12,3.05v8.81a24.2,24.2,0,0,0-12-3c-7.39,0-10.37,3.12-10.37,9.65Z"/><path d="M386.85,204.11c0,1.5.64,2.14,2.13,2.14h21.38v8.87H385.85c-6,0-8.52-2.55-8.52-8.52V177.48c0-6,2.56-8.52,8.52-8.52h24.51v8.88H389c-1.49,0-2.13.63-2.13,2.13v7.1h20.67V196H386.85Z"/><path d="M416.46,204.26a38.3,38.3,0,0,0,14.92,2.84c5.61,0,7.74-.92,7.74-3.84,0-2.13-1.2-3.19-5.68-5.82l-9.09-5.33c-4.76-2.77-7.17-6.39-7.17-11.93,0-7.81,4.76-11.93,16.54-11.93a29.07,29.07,0,0,1,13.08,2.69v9a28.53,28.53,0,0,0-13.08-2.77c-4.68,0-6.74.71-6.74,3.33,0,1.78,1,2.7,3.9,4.41l9.45,5.54c5.47,3.19,8.6,6.39,8.6,12.85,0,8-4.76,12.72-17.69,12.72a36.12,36.12,0,0,1-14.78-2.77Z"/><path class="cls-1" d="M120.67,69.23a6.65,6.65,0,0,1-5.81-9.88C135.22,22.74,173.47,0,214.7,0c36.17,0,69.46,16.91,91.35,46.4a6.65,6.65,0,1,1-10.67,7.93c-19.36-26.08-48.76-41-80.68-41-36.41,0-70.21,20.13-88.22,52.52A6.63,6.63,0,0,1,120.67,69.23Z"/><path class="cls-2" d="M503.4,287.2A6.64,6.64,0,0,1,498.54,276a71.26,71.26,0,0,0,19.09-48.78c0-34.56-24.18-63.85-57.49-69.64l-6.45-1.12,1-6.46a85.85,85.85,0,0,0,1.16-13.43c0-46.31-36.85-84-82.15-84a80,80,0,0,0-50.72,18,6.64,6.64,0,1,1-8.34-10.34,93.16,93.16,0,0,1,59.06-21c52.63,0,95.44,43.64,95.44,97.28a88,88,0,0,1-.5,9.25c36.44,9.29,62.26,42.54,62.26,81.39a84.54,84.54,0,0,1-22.65,57.86A6.64,6.64,0,0,1,503.4,287.2Z"/><path class="cls-3" d="M448.49,311.25H263.37a6.65,6.65,0,0,1,0-13.3H448.49a67.39,67.39,0,0,0,26.4-5.33,6.65,6.65,0,1,1,5.19,12.24A80.66,80.66,0,0,1,448.49,311.25Z"/><path class="cls-4" d="M231.47,311.25h-136A94.46,94.46,0,0,1,21.6,275.61,6.65,6.65,0,1,1,32,267.28,81.22,81.22,0,0,0,95.43,298h136a6.65,6.65,0,0,1,0,13.3Z"/><path class="cls-5" d="M11.51,250.27a6.66,6.66,0,0,1-6.3-4.52A98.76,98.76,0,0,1,0,214c0-53.64,42.81-97.29,95.43-97.29,1.5,0,3,0,4.59.14a120.09,120.09,0,0,1,2.86-26,6.65,6.65,0,0,1,13,2.9,106.61,106.61,0,0,0-2.55,23.2c0,1.74.12,3.51.25,5.38l.61,9.52-8-1.07a79.38,79.38,0,0,0-10.71-.8c-45.29,0-82.14,37.68-82.14,84a85.54,85.54,0,0,0,4.51,27.52,6.64,6.64,0,0,1-4.16,8.43A6.57,6.57,0,0,1,11.51,250.27Z"/></g></g></svg>