<svg xmlns="http://www.w3.org/2000/svg" xmlns:xlink="http://www.w3.org/1999/xlink" viewBox="0 0 28.35 32.52"><defs><style>.cls-1{fill:url(#New_Gradient_Swatch);}.cls-2{fill:url(#New_Gradient_Swatch-2);}.cls-3{fill:url(#New_Gradient_Swatch-3);}.cls-4{fill:url(#New_Gradient_Swatch-4);}.cls-5{fill:url(#New_Gradient_Swatch-5);}.cls-6{fill:url(#New_Gradient_Swatch-6);}.cls-7{fill:url(#New_Gradient_Swatch-7);}.cls-8{fill:url(#New_Gradient_Swatch-8);}.cls-9{fill:url(#New_Gradient_Swatch-9);}.cls-10{fill:url(#New_Gradient_Swatch-10);}.cls-11{fill:url(#New_Gradient_Swatch-11);}</style><linearGradient id="New_Gradient_Swatch" x1="7.29" y1="38.19" x2="37.54" y2="7.33" gradientUnits="userSpaceOnUse"><stop offset="0" stop-color="#096eb5"/><stop offset="0.28" stop-color="#107fc2"/><stop offset="0.83" stop-color="#22ace3"/><stop offset="1" stop-color="#28bbee"/></linearGradient><linearGradient id="New_Gradient_Swatch-2" x1="12.57" y1="43.36" x2="42.82" y2="12.51" xlink:href="#New_Gradient_Swatch"/><linearGradient id="New_Gradient_Swatch-3" x1="0.16" y1="31.2" x2="30.41" y2="0.34" xlink:href="#New_Gradient_Swatch"/><linearGradient id="New_Gradient_Swatch-4" x1="-2.47" y1="28.62" x2="27.79" y2="-2.23" xlink:href="#New_Gradient_Swatch"/><linearGradient id="New_Gradient_Swatch-5" x1="-7.71" y1="23.48" x2="22.55" y2="-7.37" xlink:href="#New_Gradient_Swatch"/><linearGradient id="New_Gradient_Swatch-6" x1="0.04" y1="31.08" x2="30.3" y2="0.23" xlink:href="#New_Gradient_Swatch"/><linearGradient id="New_Gradient_Swatch-7" x1="-3.4" y1="27.71" x2="26.85" y2="-3.14" xlink:href="#New_Gradient_Swatch"/><linearGradient id="New_Gradient_Swatch-8" x1="2.07" y1="33.07" x2="32.32" y2="2.22" xlink:href="#New_Gradient_Swatch"/><linearGradient id="New_Gradient_Swatch-9" x1="-1.14" y1="29.92" x2="29.11" y2="-0.93" xlink:href="#New_Gradient_Swatch"/><linearGradient id="New_Gradient_Swatch-10" x1="-4.85" y1="26.28" x2="25.4" y2="-4.57" xlink:href="#New_Gradient_Swatch"/><linearGradient id="New_Gradient_Swatch-11" x1="-8.3" y1="22.9" x2="21.96" y2="-7.95" xlink:href="#New_Gradient_Swatch"/></defs><title>Security</title><g id="Layer_2" data-name="Layer 2"><g id="Layer_1-2" data-name="Layer 1"><path class="cls-1" d="M20.52,29.91a5.22,5.22,0,1,1,5.22-5.22A5.22,5.22,0,0,1,20.52,29.91Zm0-9.15a3.93,3.93,0,1,0,3.93,3.93A3.94,3.94,0,0,0,20.52,20.76Z"/><path class="cls-2" d="M27.71,32.52a.64.64,0,0,1-.45-.19l-3.92-3.92a.64.64,0,0,1,.91-.91l3.92,3.92a.64.64,0,0,1-.45,1.09Z"/><path class="cls-3" d="M22.86,18.8a.64.64,0,0,1-.64-.64V4.56a.67.67,0,0,0-.67-.67H17.63a.64.64,0,1,1,0-1.28h3.92A2,2,0,0,1,23.5,4.56v13.6A.64.64,0,0,1,22.86,18.8Z"/><path class="cls-4" d="M16.5,31.35H1.95A2,2,0,0,1,0,29.4V4.56A2,2,0,0,1,1.95,2.61H5.87a.64.64,0,0,1,0,1.28H1.95a.67.67,0,0,0-.67.67V29.4a.67.67,0,0,0,.67.67H16.5a.64.64,0,0,1,0,1.28Z"/><path class="cls-5" d="M17.63,5.2H5.87a.64.64,0,0,1-.64-.64V3.25A2,2,0,0,1,7.18,1.31H9.5a2.59,2.59,0,0,1,4.5,0h2.33a2,2,0,0,1,1.95,1.95V4.56A.64.64,0,0,1,17.63,5.2ZM6.51,3.92H17V3.25a.67.67,0,0,0-.67-.67H13.59a.64.64,0,0,1-.6-.43,1.31,1.31,0,0,0-2.47,0,.64.64,0,0,1-.6.43H7.18a.67.67,0,0,0-.67.67Z"/><path class="cls-6" d="M19.86,17.32H8.48a.64.64,0,0,1,0-1.28H19.86a.64.64,0,0,1,0,1.28Z"/><path class="cls-7" d="M19.86,10.43H8.48a.64.64,0,0,1,0-1.28H19.86a.64.64,0,0,1,0,1.28Z"/><path class="cls-8" d="M13.23,24.75H8.48a.64.64,0,1,1,0-1.28h4.74a.64.64,0,0,1,0,1.28Z"/><path class="cls-9" d="M4.56,26.05a1.95,1.95,0,1,1,1.95-1.95A1.95,1.95,0,0,1,4.56,26.05Zm0-2.61a.67.67,0,1,0,.67.67A.67.67,0,0,0,4.56,23.44Z"/><path class="cls-10" d="M4.56,18.62a1.95,1.95,0,1,1,1.95-1.95A1.95,1.95,0,0,1,4.56,18.62Zm0-2.61a.67.67,0,1,0,.67.67A.67.67,0,0,0,4.56,16Z"/><path class="cls-11" d="M4.56,11.74A1.95,1.95,0,1,1,6.51,9.79,1.95,1.95,0,0,1,4.56,11.74Zm0-2.61a.67.67,0,1,0,.67.67A.67.67,0,0,0,4.56,9.12Z"/></g></g></svg>