<svg xmlns="http://www.w3.org/2000/svg" xmlns:xlink="http://www.w3.org/1999/xlink" viewBox="0 0 34.02 34.02"><defs><style>.cls-1{fill:url(#New_Gradient_Swatch);}.cls-2{fill:url(#New_Gradient_Swatch-4);}.cls-3{fill:url(#New_Gradient_Swatch-5);}</style><linearGradient id="New_Gradient_Swatch" x1="1.32" y1="31.86" x2="34.99" y2="-0.02" gradientUnits="userSpaceOnUse"><stop offset="0" stop-color="#096eb5"/><stop offset="0.28" stop-color="#107fc2"/><stop offset="0.83" stop-color="#22ace3"/><stop offset="1" stop-color="#28bbee"/></linearGradient><linearGradient id="New_Gradient_Swatch-4" x1="-2.78" y1="27.53" x2="30.89" y2="-4.34" xlink:href="#New_Gradient_Swatch"/><linearGradient id="New_Gradient_Swatch-5" x1="5.42" y1="36.19" x2="39.09" y2="4.31" xlink:href="#New_Gradient_Swatch"/></defs><title>web</title><g id="Layer_2" data-name="Layer 2"><g id="Layer_1-2" data-name="Layer 1"><path class="cls-1" d="M17,34A17,17,0,1,1,34,17,17,17,0,0,1,17,34ZM17,1.17A15.83,15.83,0,1,0,32.84,17,15.85,15.85,0,0,0,17,1.17Z"/><path class="cls-1" d="M17,34c-5.26,0-9.54-7.63-9.54-17S11.75,0,17,0s9.54,7.63,9.54,17S22.27,34,17,34ZM17,1.17c-4.62,0-8.37,7.1-8.37,15.83S12.39,32.84,17,32.84s8.37-7.1,8.37-15.83S21.62,1.17,17,1.17Z"/><path class="cls-1" d="M33.43,17.59H.59a.59.59,0,0,1,0-1.17H33.43a.59.59,0,0,1,0,1.17Z"/><path class="cls-2" d="M31.22,9.38H2.79a.59.59,0,0,1,0-1.17H31.22a.59.59,0,0,1,0,1.17Z"/><path class="cls-3" d="M31.22,25.81H2.79a.59.59,0,0,1,0-1.17H31.22a.59.59,0,0,1,0,1.17Z"/><path class="cls-1" d="M17,34a.59.59,0,0,1-.59-.59V.59a.59.59,0,1,1,1.17,0V33.43A.59.59,0,0,1,17,34Z"/></g></g></svg>