<svg xmlns="http://www.w3.org/2000/svg" xmlns:xlink="http://www.w3.org/1999/xlink" width="191.766" height="192.461" viewBox="0 0 191.766 192.461">
  <defs>
    <clipPath id="clip-path">
      <path id="Path_16536" data-name="Path 16536" d="M533.044,36.918a61.039,61.039,0,0,0-20.8,13.028c-12.747,12.236-9.94,29.633-5.76,45.023.985,3.626,4.741,4.176,7.269,2.738,11.582,4.73,15.5,19.029,18.557,30.2,3.847,14.074,9.381,27.475,20.045,37.825,9.72,9.436,23.555,15.221,37.116,11.644,14.056-3.708,22.932-17.893,29.488-29.867,7.236-13.216,12.248-27.568,16.476-41.988,4.166-14.21,8.1-29.907,2.484-44.3h.006c-5.342-13.687-17.42-20.566-31.54-22.334a117.2,117.2,0,0,0-17.338-.449c-2.356.056-4.711.111-7.064.109-8.122-.012-15.865-1.565-23.856-2.777a78.45,78.45,0,0,0-11.713-1.021,38.646,38.646,0,0,0-13.367,2.169" transform="translate(-502.965 -34.749)" fill="none"/>
    </clipPath>
    <linearGradient id="linear-gradient" x1="0.667" y1="-0.216" x2="0.416" y2="1.114" gradientUnits="objectBoundingBox">
      <stop offset="0" stop-color="#067bc1"/>
      <stop offset="1" stop-color="#18c1f2"/>
    </linearGradient>
    <clipPath id="clip-path-2">
      <rect id="Rectangle_5823" data-name="Rectangle 5823" width="113.726" height="186.09" fill="none"/>
    </clipPath>
  </defs>
  <g id="Group_31865" data-name="Group 31865" transform="translate(-830.529 -242.256)">
    <g id="Group_31852" data-name="Group 31852" transform="matrix(-0.875, -0.485, 0.485, -0.875, 1375.683, 708.951)">
      <g id="Group_31259" data-name="Group 31259" transform="translate(502.965 34.749)" clip-path="url(#clip-path)">
        <path id="Path_17155" data-name="Path 17155" d="M0,0H144.04V146.209H0Z" transform="translate(-3.47 0)" fill="url(#linear-gradient)"/>
      </g>
    </g>
    <path id="Path_17261" data-name="Path 17261" d="M976.2,59.57a1.058,1.058,0,0,0-.1.436V59.57Z" transform="translate(-145.566 240.507)" fill="#7c79ad"/>
    <g id="Group_31856" data-name="Group 31856" transform="translate(893.5 248)">
      <path id="Path_17202" data-name="Path 17202" d="M107.461,17.911V136.9L29.934,181.647V62.656Z" transform="translate(4.538 2.715)" fill="#bcc621"/>
      <g id="Group_31826" data-name="Group 31826">
        <g id="Group_31825" data-name="Group 31825" clip-path="url(#clip-path-2)">
          <path id="Path_17203" data-name="Path 17203" d="M87.469,17.447V30.029l-56.635,32.7L24.008,58.79c50.1-29.149,63.461-41.343,63.461-41.343" transform="translate(3.639 2.645)" fill="#c2c7cc"/>
          <path id="Path_17204" data-name="Path 17204" d="M77.008,12.892C82.535,15.443,88.85,18.43,88.85,18.43S75.491,30.624,25.389,59.775L14.9,53.726C36.539,40.791,63.527,20.569,72.782,10.961Z" transform="translate(2.258 1.662)" fill="#fff"/>
          <path id="Path_17205" data-name="Path 17205" d="M79.039,1.5V14.325L74.812,12.4C65.557,22,38.57,42.225,16.925,55.16L1.5,46.245Z" transform="translate(0.228 0.227)" fill="#00b1ec"/>
          <path id="Path_17206" data-name="Path 17206" d="M34.244,59.254V178.245L1.5,159.347V40.355Zm-8.805,71.915V64.8l-16.1-9.291v66.364Zm-1.907,18.96a12.527,12.527,0,0,0-5.66-9.79c-3.121-1.809-5.66-.34-5.66,3.267a12.514,12.514,0,0,0,5.66,9.8c3.122,1.8,5.66.34,5.66-3.28" transform="translate(0.227 6.117)" fill="#fff"/>
          <path id="Path_17207" data-name="Path 17207" d="M24.408,62.809v66.364L8.3,119.882V53.518Z" transform="translate(1.259 8.113)" fill="#c2c7cc"/>
          <path id="Path_17208" data-name="Path 17208" d="M16.463,127.279a12.527,12.527,0,0,1,5.66,9.79c0,3.619-2.538,5.076-5.66,3.279a12.51,12.51,0,0,1-5.66-9.8c0-3.607,2.539-5.076,5.66-3.267" transform="translate(1.638 19.177)" fill="#373a3a"/>
          <path id="Path_17209" data-name="Path 17209" d="M34.473,180.2a1.729,1.729,0,0,1-.864-.231L.864,161.07a1.727,1.727,0,0,1-.864-1.5V40.582a1.727,1.727,0,0,1,2.591-1.5l32.745,18.9a1.727,1.727,0,0,1,.864,1.5V178.473a1.727,1.727,0,0,1-1.727,1.727M3.455,158.577l29.291,16.9v-115L3.455,43.574Z" transform="translate(0 5.89)" fill="#373a3a"/>
          <path id="Path_17210" data-name="Path 17210" d="M24.635,131.129a1.725,1.725,0,0,1-.863-.231l-16.1-9.292a1.726,1.726,0,0,1-.865-1.5V53.745a1.728,1.728,0,0,1,2.59-1.5L25.5,61.541a1.727,1.727,0,0,1,.864,1.5V129.4a1.73,1.73,0,0,1-1.727,1.727M10.258,119.112l12.65,7.3V64.034l-12.65-7.3Z" transform="translate(1.031 7.885)" fill="#373a3a"/>
          <path id="Path_17211" data-name="Path 17211" d="M19.224,143.066a6.872,6.872,0,0,1-3.4-.995,14.208,14.208,0,0,1-6.525-11.3,5.681,5.681,0,0,1,2.528-5.164,5.668,5.668,0,0,1,5.726.4,14.231,14.231,0,0,1,6.521,11.282,5.69,5.69,0,0,1-2.522,5.167,4.618,4.618,0,0,1-2.332.6m-5.06-14.607a1.2,1.2,0,0,0-.609.144,2.48,2.48,0,0,0-.8,2.17,10.762,10.762,0,0,0,4.794,8.3,2.487,2.487,0,0,0,2.274.394,2.489,2.489,0,0,0,.8-2.177,10.785,10.785,0,0,0-4.8-8.294,3.483,3.483,0,0,0-1.659-.541" transform="translate(1.41 18.95)" fill="#373a3a"/>
          <path id="Path_17212" data-name="Path 17212" d="M30.164,183.6a1.728,1.728,0,0,1-.865-3.224l76.663-44.245v-115L31.026,64.379A1.727,1.727,0,1,1,29.3,61.387l77.526-44.745a1.728,1.728,0,0,1,2.591,1.5V137.13a1.731,1.731,0,0,1-.864,1.5L31.026,183.371a1.726,1.726,0,0,1-.863.231" transform="translate(4.31 2.488)" fill="#373a3a"/>
          <path id="Path_17213" data-name="Path 17213" d="M1.73,48.2a1.728,1.728,0,0,1-.865-3.224L78.4.231a1.727,1.727,0,0,1,2.59,1.5V14.555a1.727,1.727,0,0,1-3.455,0V4.719L2.591,47.968a1.722,1.722,0,0,1-.861.231" transform="translate(0 0)" fill="#373a3a"/>
          <path id="Path_17214" data-name="Path 17214" d="M25.618,61.73a1.728,1.728,0,0,1-.871-3.221C63.775,35.8,80.534,23.329,85.874,19.072L73.387,13.266C62.909,23.7,36.119,43.418,16.008,55.437a1.728,1.728,0,0,1-1.772-2.966C36.638,39.082,63.085,19,71.765,9.991a1.729,1.729,0,0,1,1.961-.373c1.253.571,16.081,7.475,16.081,7.475a1.727,1.727,0,0,1,.435,2.842c-.55.5-14.068,12.65-63.757,41.561a1.72,1.72,0,0,1-.867.235" transform="translate(2.03 1.434)" fill="#373a3a"/>
          <path id="Path_17215" data-name="Path 17215" d="M79.342,31.985a1.727,1.727,0,0,1-1.727-1.727V17.674a1.727,1.727,0,0,1,3.455,0V30.258a1.727,1.727,0,0,1-1.727,1.727" transform="translate(11.766 2.417)" fill="#373a3a"/>
        </g>
      </g>
    </g>
  </g>
</svg>
