<svg xmlns="http://www.w3.org/2000/svg" xmlns:xlink="http://www.w3.org/1999/xlink" width="237.573" height="200" viewBox="0 0 237.573 200">
  <defs>
    <clipPath id="clip-path">
      <rect id="Rectangle_369" data-name="Rectangle 369" width="49.35" height="52.168" fill="#fff" stroke="#fff" stroke-width="0.5"/>
    </clipPath>
    <clipPath id="clip-path-2">
      <path id="Path_17015" data-name="Path 17015" d="M99.109,27.78A53.888,53.888,0,0,0,52.44,54.724l-14.147,24.5a53.889,53.889,0,0,0,0,53.888l14.147,24.5a53.888,53.888,0,0,0,46.668,26.944H127.4a53.889,53.889,0,0,0,46.669-26.944l14.147-24.5a53.887,53.887,0,0,0,0-53.888l-14.147-24.5A53.889,53.889,0,0,0,127.4,27.78Z" transform="translate(-31.073 -27.78)" fill="none"/>
    </clipPath>
    <linearGradient id="linear-gradient" x1="0.111" y1="1.098" x2="0.788" y2="0.104" gradientUnits="objectBoundingBox">
      <stop offset="0" stop-color="#0069b4"/>
      <stop offset="1" stop-color="#00b1ec"/>
    </linearGradient>
    <clipPath id="clip-path-3">
      <rect id="Rectangle_5825" data-name="Rectangle 5825" width="222.249" height="198.461" fill="none"/>
    </clipPath>
  </defs>
  <g id="Group_31863" data-name="Group 31863" transform="translate(-112.5 -242)">
    <g id="Group_31859" data-name="Group 31859" transform="translate(179.409 271.16)">
      <g id="Group_1814" data-name="Group 1814" clip-path="url(#clip-path)">
        <path id="Path_1258" data-name="Path 1258" d="M37.706,81.577A2.684,2.684,0,0,1,35.025,78.9H32.637a5.069,5.069,0,0,0,10.138,0H40.388a2.684,2.684,0,0,1-2.682,2.681" transform="translate(-13.154 -31.797)" fill="#fff" stroke="#fff" stroke-width="0.5"/>
        <path id="Path_1259" data-name="Path 1259" d="M44.651,33.953A10.843,10.843,0,1,0,27.026,42.4c.23.248,1.713,2.175,1.713,10.658h2.388a38.6,38.6,0,0,0-.8-8.846,10.661,10.661,0,0,0,7.009-.017,33.95,33.95,0,0,0-.836,7.669H33.808v2.388h5.07V53.057c0-9.167,1.84-10.652,1.858-10.666a.639.639,0,0,1-.147.074l-.02-.05a10.817,10.817,0,0,0,4.082-8.462M28.634,40.624a2.266,2.266,0,0,0-.281-.223,8.739,8.739,0,1,1,.281.223" transform="translate(-9.255 -9.314)" fill="#fff" stroke="#fff" stroke-width="0.5"/>
        <path id="Path_1260" data-name="Path 1260" d="M40.322,10.693A1.194,1.194,0,0,0,41.516,9.5V1.194a1.194,1.194,0,1,0-2.388,0V9.5a1.2,1.2,0,0,0,1.194,1.195" transform="translate(-15.77 0)" fill="#fff" stroke="#fff" stroke-width="0.5"/>
        <path id="Path_1261" data-name="Path 1261" d="M74.254,39.273h-8.3a1.194,1.194,0,0,0,0,2.388h8.3a1.194,1.194,0,0,0,0-2.388" transform="translate(-26.098 -15.828)" fill="#fff" stroke="#fff" stroke-width="0.5"/>
        <path id="Path_1262" data-name="Path 1262" d="M10.692,40.467A1.194,1.194,0,0,0,9.5,39.273h-8.3a1.194,1.194,0,0,0,0,2.388H9.5a1.194,1.194,0,0,0,1.194-1.194" transform="translate(0 -15.828)" fill="#fff" stroke="#fff" stroke-width="0.5"/>
        <path id="Path_1263" data-name="Path 1263" d="M16.829,17.566a1.194,1.194,0,0,0,1.688-1.688l-5.872-5.872a1.194,1.194,0,0,0-1.688,1.688Z" transform="translate(-4.275 -3.892)" fill="#fff" stroke="#fff" stroke-width="0.5"/>
        <path id="Path_1264" data-name="Path 1264" d="M58.747,56.108A1.194,1.194,0,0,0,57.059,57.8l5.872,5.872A1.194,1.194,0,0,0,64.62,61.98Z" transform="translate(-22.855 -22.472)" fill="#fff" stroke="#fff" stroke-width="0.5"/>
        <path id="Path_1265" data-name="Path 1265" d="M16.829,56.778,10.957,62.65a1.194,1.194,0,1,0,1.688,1.688l5.872-5.872a1.194,1.194,0,1,0-1.688-1.688" transform="translate(-4.275 -22.742)" fill="#fff" stroke="#fff" stroke-width="0.5"/>
        <path id="Path_1266" data-name="Path 1266" d="M57.9,18.586a1.188,1.188,0,0,0,.844-.35l5.872-5.872a1.194,1.194,0,0,0-1.688-1.688l-5.872,5.872a1.194,1.194,0,0,0,.844,2.038" transform="translate(-22.855 -4.162)" fill="#fff" stroke="#fff" stroke-width="0.5"/>
      </g>
    </g>
    <g id="Group_31860" data-name="Group 31860" transform="translate(112.5 285.217)">
      <g id="Group_31531" data-name="Group 31531" clip-path="url(#clip-path-2)">
        <rect id="Rectangle_5800" data-name="Rectangle 5800" width="169.178" height="156.783" transform="translate(-2.407 0)" fill="url(#linear-gradient)"/>
      </g>
    </g>
    <g id="Group_31853" data-name="Group 31853" transform="translate(127.824 242)">
      <path id="Path_17230" data-name="Path 17230" d="M425.188,226.627l-36.716,21.2-36.586,21.124-36.712-.807,73.3-42.322Z" transform="translate(-203.598 -146.131)" fill="#fff"/>
      <path id="Path_17231" data-name="Path 17231" d="M450.287,44.3,422.816,80.518l-34.651-20,6.458-6.3V32.638l-17-13.789-9.517-5.5,8.706-11.478Z" transform="translate(-237.941 -1.217)" fill="#fff"/>
      <path id="Path_17232" data-name="Path 17232" d="M388.145,325.341V341.8L314.67,384.224V308.9l.177-.1,36.712.807,36.586-21.124Z" transform="translate(-203.497 -186.421)" fill="#00b1ec"/>
      <path id="Path_17233" data-name="Path 17233" d="M105.442,188.733l-.011-.007,34.989-20.077,38.556,38.3,39.443-38.227,34.863,20-73.746,42.322h0l-.341.007Z" transform="translate(-68.407 -109.094)" fill="#c2c7cc"/>
      <path id="Path_17234" data-name="Path 17234" d="M412.206,64V85.576l-17-21.924V50.21Z" transform="translate(-255.813 -32.578)" fill="#bcc621"/>
      <path id="Path_17235" data-name="Path 17235" d="M364.786,88.489l17,21.924-26.424,15.256L348.321,98Z" transform="translate(-225.417 -57.268)" fill="#bcc621"/>
      <path id="Path_17236" data-name="Path 17236" d="M359.25,150.92l-6.458,6.3-39.2,38.227,19.237-29.27Z" transform="translate(-202.904 -97.66)" fill="#bcc621"/>
      <path id="Path_17237" data-name="Path 17237" d="M291.337,32.647V46.089L274.873,55.6H251.585L235.12,46.089V32.647l9.274-5.356,7.191-4.15h23.288l6.948,4.01Z" transform="translate(-152.104 -15.015)" fill="#fff"/>
      <path id="Path_17238" data-name="Path 17238" d="M292.286,115.559l7.04,27.674H261.959L269,115.559Z" transform="translate(-169.518 -74.798)" fill="#bcc621"/>
      <path id="Path_17239" data-name="Path 17239" d="M299.327,194.363l-19.237,29.27-18.131-29.27Z" transform="translate(-169.518 -125.803)" fill="#bcc621"/>
      <path id="Path_17240" data-name="Path 17240" d="M314.537,346.337l-.339.007.166.1.177-.1Z" transform="translate(-203.413 -224.249)" fill="#fff"/>
      <path id="Path_17241" data-name="Path 17241" d="M178.909,308.534v75.322L105.43,341.435V287.915l36.937,21.323,36.376-.8Z" transform="translate(-68.182 -186.053)" fill="#00b1ec"/>
      <path id="Path_17242" data-name="Path 17242" d="M38.241,225.841h.011l73.3,42.322-36.377.8L38.241,247.64l-36.365-21Z" transform="translate(-1.217 -146.145)" fill="#fff"/>
      <path id="Path_17243" data-name="Path 17243" d="M213.136,166.169l18.131,29.27-38.323-38.3-6.233-6.229Z" transform="translate(-120.812 -97.653)" fill="#bcc621"/>
      <path id="Path_17244" data-name="Path 17244" d="M220.177,98l-7.04,27.674-26.424-15.26,17-21.92Z" transform="translate(-120.831 -57.269)" fill="#bcc621"/>
      <path id="Path_17245" data-name="Path 17245" d="M100.681,1.875l8.809,11.618-9.274,5.355-17,13.789V54.212l6.233,6.229L54.674,80.518,27.2,44.3l14.309-8.264L60.693,24.964,71.1,18.956Z" transform="translate(-17.65 -1.217)" fill="#fff"/>
      <path id="Path_17246" data-name="Path 17246" d="M203.712,50.21V63.652l-17,21.92V64Z" transform="translate(-120.857 -32.578)" fill="#bcc621"/>
      <path id="Path_17247" data-name="Path 17247" d="M105.43,225.828h.011l-.011-.007Z" transform="translate(-68.406 -146.216)" fill="#fff"/>
      <g id="Group_31831" data-name="Group 31831">
        <g id="Group_31830" data-name="Group 31830" clip-path="url(#clip-path-3)">
          <path id="Path_17248" data-name="Path 17248" d="M249.549,100.473H212.029a.66.66,0,0,1-.331-.088L185.168,85.066a.66.66,0,0,1-.331-.572V62.838a.661.661,0,0,1,.245-.513L202.15,48.483a.661.661,0,0,1,.834,1.027L186.159,63.153V84.112l26.047,15.039h37.165l26.047-15.035V63.153L258.595,49.509a.661.661,0,0,1,.834-1.027L276.5,62.324a.662.662,0,0,1,.245.513V84.5a.661.661,0,0,1-.331.572l-26.532,15.314a.659.659,0,0,1-.33.088" transform="translate(-119.665 -31.296)" fill="#262c2a"/>
          <path id="Path_17249" data-name="Path 17249" d="M273.82,55.166H250.438a.661.661,0,0,1-.331-.088l-16.531-9.542a.661.661,0,0,1-.331-.572V31.469a.661.661,0,0,1,.331-.572l16.531-9.542a.665.665,0,0,1,.331-.088H273.82a.662.662,0,0,1,.33.088L290.682,30.9a.661.661,0,0,1,.33.572V44.963a.661.661,0,0,1-.33.572L274.15,55.078a.659.659,0,0,1-.33.088m-23.205-1.322h23.028l16.048-9.263V31.851l-16.048-9.263H250.615l-16.048,9.263V44.581Z" transform="translate(-151.004 -13.769)" fill="#262c2a"/>
          <path id="Path_17250" data-name="Path 17250" d="M260.744,142.785a.654.654,0,0,1-.163-.021.661.661,0,0,1-.478-.8l7.069-27.78a.661.661,0,0,1,1.281.326l-7.069,27.78a.661.661,0,0,1-.64.5" transform="translate(-168.379 -73.609)" fill="#262c2a"/>
          <path id="Path_17251" data-name="Path 17251" d="M411.062,109.944a.66.66,0,0,1-.523-.256L393.471,87.68a.661.661,0,0,1,1.045-.81l17.068,22.008a.661.661,0,0,1-.522,1.066" transform="translate(-254.646 -56.082)" fill="#262c2a"/>
          <path id="Path_17252" data-name="Path 17252" d="M278.948,172.166h-.009a.661.661,0,0,1-.553-.313l-18.2-29.381a.661.661,0,0,1,1.124-.7l17.659,28.5L297.551,142l-7-27.5a.661.661,0,0,1,1.282-.326l7.069,27.78a.661.661,0,0,1-.088.526L279.5,171.868a.66.66,0,0,1-.552.3" transform="translate(-168.379 -73.608)" fill="#262c2a"/>
          <path id="Path_17253" data-name="Path 17253" d="M230.234,154.64a.658.658,0,0,1-.467-.194l-44.736-44.7a.66.66,0,0,1-.055-.872l17.068-22a.661.661,0,1,1,1.045.81l-16.711,21.543L230.24,153.05l45.378-44.24a.661.661,0,0,1,.923.946l-45.846,44.7a.658.658,0,0,1-.462.188" transform="translate(-119.665 -56.082)" fill="#262c2a"/>
          <path id="Path_17254" data-name="Path 17254" d="M421.824,80.265a.663.663,0,0,1-.33-.088L386.7,60.1a.661.661,0,1,1,.661-1.145L421.65,78.74l26.777-35.294L375.808,1.525l-8.389,11.057a.661.661,0,0,1-1.054-.8L375.107.262a.661.661,0,0,1,.857-.173l73.773,42.587a.661.661,0,0,1,.2.972L422.351,80a.66.66,0,0,1-.527.262" transform="translate(-237.1 0)" fill="#262c2a"/>
          <path id="Path_17255" data-name="Path 17255" d="M178,230.836a.658.658,0,0,1-.33-.089l-73.766-42.579-.038-.024a.673.673,0,0,1-.3-.575.663.663,0,0,1,.325-.554l34.918-20.153a.661.661,0,1,1,.661,1.145l-33.928,19.582L178,229.411l73.443-42.4a.661.661,0,1,1,.661,1.145l-73.771,42.585a.66.66,0,0,1-.333.09" transform="translate(-67.052 -107.984)" fill="#262c2a"/>
          <path id="Path_17256" data-name="Path 17256" d="M53.571,80.265A.661.661,0,0,1,53.044,80L25.462,43.648a.661.661,0,0,1,.2-.972L99.435.089a.661.661,0,0,1,.857.173l8.845,11.662a.661.661,0,0,1-1.054.8l-8.493-11.2L26.968,43.446,54.1,79.2a.661.661,0,0,1-.526,1.06" transform="translate(-16.397 0)" fill="#262c2a"/>
          <path id="Path_17257" data-name="Path 17257" d="M104.216,225.286a.663.663,0,1,1,.661-.67v.007a.663.663,0,0,1-.661.663" transform="translate(-67.042 -145.012)" fill="#262c2a"/>
          <path id="Path_17258" data-name="Path 17258" d="M313.456,421.687a.661.661,0,0,1-.661-.661V345.417a.661.661,0,0,1,1.322,0v75.609a.661.661,0,0,1-.661.661" transform="translate(-202.506 -223.226)" fill="#262c2a"/>
          <path id="Path_17259" data-name="Path 17259" d="M147.989,268.561h-.014l-36.86-.81-.316.007-36.524.8a.627.627,0,0,1-.345-.088l-37.086-21.4L.331,225.989a.661.661,0,0,1,.316-1.233l36.864-.81a.668.668,0,0,1,.676.646.661.661,0,0,1-.647.675l-34.5.758,34.466,19.9,36.926,21.312,36.679-.806,36.708.806,71.392-41.21-34.5-.758a.661.661,0,0,1,.014-1.322h.015l36.864.81a.661.661,0,0,1,.316,1.233l-73.6,42.483a.659.659,0,0,1-.33.088" transform="translate(0 -145.002)" fill="#262c2a"/>
          <path id="Path_17260" data-name="Path 17260" d="M177.993,383.669a.663.663,0,0,1-.33-.088L103.885,341a.661.661,0,0,1-.33-.572V286.7a.661.661,0,0,1,1.322,0v53.342l73.115,42.2,73.112-42.2V286.9a.661.661,0,0,1,1.322,0v53.524a.661.661,0,0,1-.33.572l-73.773,42.583a.663.663,0,0,1-.33.088" transform="translate(-67.042 -185.208)" fill="#262c2a"/>
        </g>
      </g>
    </g>
  </g>
</svg>
