<?xml version="1.0" encoding="utf-8"?>
<!-- Generator: Adobe Illustrator 23.0.3, SVG Export Plug-In . SVG Version: 6.00 Build 0)  -->
<svg version="1.1" id="Layer_1" xmlns="http://www.w3.org/2000/svg" xmlns:xlink="http://www.w3.org/1999/xlink" x="0px" y="0px"
	 viewBox="0 0 68.78 67.59" style="enable-background:new 0 0 68.78 67.59;" xml:space="preserve">
<style type="text/css">
	.st0{fill:none;stroke:#0D6EB7;stroke-width:1.4173;stroke-linecap:round;stroke-miterlimit:10;}
	.st1{fill:none;stroke:#0D6EB7;stroke-width:1.4173;stroke-linecap:round;stroke-linejoin:round;stroke-miterlimit:10;}
</style>
<g>
	<polyline class="st0" points="50.73,39.63 50.73,14.73 43.88,7.89 12.68,7.89 12.68,56.9 38.2,56.9 	"/>
	<polyline class="st0" points="50.65,14.89 43.65,14.89 43.65,7.89 	"/>
	<line class="st0" x1="20.15" y1="22.82" x2="43.03" y2="22.82"/>
	<line class="st0" x1="20.15" y1="27.96" x2="43.03" y2="27.96"/>
	<line class="st0" x1="20.15" y1="33.1" x2="43.03" y2="33.1"/>
	<line class="st0" x1="20.15" y1="38.23" x2="29.49" y2="38.23"/>
	<line class="st0" x1="20.15" y1="43.37" x2="29.49" y2="43.37"/>
	<circle class="st0" cx="45.36" cy="48.97" r="10.74"/>
	<g>
		<path class="st1" d="M46.99,43.95c0,0.9-1.63,7.35-1.63,7.35s-1.63-6.45-1.63-7.35s0.73-1.63,1.63-1.63S46.99,43.05,46.99,43.95z"
			/>
		<circle class="st1" cx="45.36" cy="54.45" r="1.17"/>
	</g>
</g>
</svg>
