<svg width="96" height="96" xmlns="http://www.w3.org/2000/svg" xmlns:xlink="http://www.w3.org/1999/xlink" xml:space="preserve" overflow="hidden"><g transform="translate(-961 -310)"><path d="M1035.2 384.2C1031.7 387.7 1026 387.7 1022.5 384.2L1014 375.7C1011.3 373 1010.6 368.9 1012.3 365.5L1019.7 372.9C1020.9 374 1022.7 374 1023.9 372.8 1025 371.7 1025.1 369.8 1024 368.6L1016.6 361.2C1020 359.6 1024.1 360.3 1026.8 363L1035.3 371.5C1038.7 375 1038.7 380.6 1035.2 384.2ZM991.3 353 982.8 344.5C979.3 341 979.3 335.3 982.8 331.8 986.3 328.3 992 328.3 995.5 331.8L1004 340.3C1006.7 343 1007.4 347.1 1005.8 350.5L999.8 344.5C998.6 343.4 996.8 343.4 995.6 344.6 994.5 345.7 994.4 347.6 995.5 348.8L1001.5 354.8C998.1 356.4 994 355.7 991.3 353ZM1039.4 367.2 1030.9 358.7C1025.9 353.6 1017.9 352.8 1012 356.8L1010.2 355C1014.1 349.1 1013.3 341.2 1008.3 336.1L999.8 327.6C993.9 322.2 984.7 322.4 979 328 973.3 333.7 973.1 342.8 978.6 348.8L987.1 357.3C992.1 362.4 1000.1 363.2 1006 359.2L1007.8 361C1003.9 366.9 1004.7 374.8 1009.7 379.9L1018.2 388.4C1024.1 393.9 1033.3 393.7 1039 388 1044.7 382.3 1044.9 373.1 1039.4 367.2L1039.4 367.2Z"/></g></svg>