<svg xmlns="http://www.w3.org/2000/svg" xmlns:xlink="http://www.w3.org/1999/xlink" width="160.67" height="199.323" viewBox="0 0 160.67 199.323">
  <defs>
    <clipPath id="clip-path">
      <path id="Path_16536" data-name="Path 16536" d="M533.4,36.944a61.769,61.769,0,0,0-21.051,13.184c-12.9,12.383-10.059,29.988-5.829,45.562,1,3.67,4.8,4.226,7.356,2.771,11.721,4.786,15.689,19.257,18.779,30.566,3.893,14.243,9.493,27.8,20.285,38.278,9.837,9.549,23.837,15.4,37.56,11.783,14.224-3.753,23.207-18.107,29.841-30.224,7.322-13.374,12.394-27.9,16.673-42.49,4.216-14.38,8.2-30.265,2.513-44.835h.006c-5.406-13.851-17.628-20.812-31.917-22.6a118.607,118.607,0,0,0-17.545-.454c-2.384.056-4.767.113-7.149.11-8.219-.013-16.055-1.584-24.141-2.81a79.388,79.388,0,0,0-11.853-1.034,39.108,39.108,0,0,0-13.527,2.2" transform="translate(-502.965 -34.749)" fill="none"/>
    </clipPath>
    <linearGradient id="linear-gradient" x1="0.628" y1="1" x2="0.702" y2="-0.074" gradientUnits="objectBoundingBox">
      <stop offset="0" stop-color="#067bc1"/>
      <stop offset="1" stop-color="#18c1f2"/>
    </linearGradient>
    <clipPath id="clip-path-2">
      <rect id="Rectangle_5824" data-name="Rectangle 5824" width="137.163" height="175.785" fill="none"/>
    </clipPath>
  </defs>
  <g id="Group_31867" data-name="Group 31867" transform="translate(-1601.048 -258)">
    <g id="Group_31861" data-name="Group 31861" transform="translate(1622.329 311.901)">
      <g id="Group_31259" data-name="Group 31259" transform="translate(0 0)" clip-path="url(#clip-path)">
        <rect id="Rectangle_5652" data-name="Rectangle 5652" width="145.765" height="147.96" transform="translate(-3.512 0)" fill="url(#linear-gradient)"/>
      </g>
    </g>
    <g id="Group_31862" data-name="Group 31862" transform="translate(1601.048 258)">
      <g id="Group_31828" data-name="Group 31828" clip-path="url(#clip-path-2)">
        <path id="Path_17216" data-name="Path 17216" d="M130.565,128.391c.2,4.421-1.234,7.519-3.648,8.922l-17.1,9.853c2.312-1.426,3.668-4.478,3.476-8.809-.348-7.564-5.611-16.588-12.008-20.56-3.007-1.886-5.791-2.391-8-1.729-2.928.853-6.543.012-10.2-2.1L77.8,110.907V73.368L95.068,63.39v37.551l5.3,3.053c3.648,2.11,7.273,2.962,10.179,2.1,2.211-.662,5.005-.146,8.013,1.728,6.385,3.963,11.66,13.007,12.008,20.571" transform="translate(4.984 4.061)" fill="#bcc621"/>
        <path id="Path_17217" data-name="Path 17217" d="M118.181,141.72c.19,4.332-1.164,7.385-3.476,8.809-2.278,1.426-5.479,1.28-9.015-.775a22.258,22.258,0,0,1-5.734-4.915c-.537-.63-1.046-1.277-1.538-1.964a34.606,34.606,0,0,0-10.292-9.943l-5.443-3.142v43.7L48.1,153.538v-2.7c0-4.287,1.3-7.642,3.468-9.887,1.469-1.515,2.323-3.905,2.323-7.047,0-5.118-2.312-10.976-5.8-15.554a22.878,22.878,0,0,0-7.4-6.5c-6.375-3.277-11.571-.19-11.817,7.037A23.854,23.854,0,0,0,31.385,129.6a32.465,32.465,0,0,1,3.277,13.658v2.513L1.5,126.625V29.866L34.663,49V43.59a32.457,32.457,0,0,0-3.277-13.657,28.6,28.6,0,0,1-1.413-3.579,21.268,21.268,0,0,1-1.1-7.138c.123-3.648,1.515-6.25,3.681-7.5,2.122-1.213,4.983-1.156,8.137.46,7.227,3.726,13.2,13.816,13.2,22.064,0,3.13-.853,5.52-2.323,7.036-2.166,2.244-3.468,5.6-3.468,9.887v5.6L82.684,76.732v37.538l5.286,3.064c3.658,2.109,7.272,2.951,10.2,2.1,2.211-.662,4.994-.157,8,1.728,6.4,3.973,11.66,13,12.008,20.56" transform="translate(0.096 0.697)" fill="#fff"/>
        <path id="Path_17218" data-name="Path 17218" d="M95.068,137.681v18.686L77.8,166.332v-43.7l5.444,3.142a34.6,34.6,0,0,1,10.291,9.943c.492.686,1,1.335,1.538,1.964" transform="translate(4.984 7.856)" fill="#bcc621"/>
        <path id="Path_17219" data-name="Path 17219" d="M97.15,64.592,79.878,74.569,45.291,54.6l17.272-9.977Z" transform="translate(2.901 2.859)" fill="#bcc621"/>
        <path id="Path_17220" data-name="Path 17220" d="M69.3,24.867c0,3.132-.865,5.533-2.335,7.047C64.8,34.147,63.5,37.514,63.5,41.8v5.59l-17.27,9.977v-5.6c0-4.287,1.3-7.643,3.468-9.887,1.468-1.515,2.323-3.905,2.323-7.037,0-8.249-5.97-18.337-13.2-22.063-3.154-1.616-6.015-1.673-8.137-.46L47.956,2.342c2.11-1.223,4.982-1.144,8.136.471C63.319,6.54,69.3,16.618,69.3,24.867" transform="translate(1.966 0.096)" fill="#bcc621"/>
        <path id="Path_17221" data-name="Path 17221" d="M50.287,127.281v2.513l-17.272,9.978v-2.514A32.467,32.467,0,0,0,29.739,123.6a23.863,23.863,0,0,1-2.514-10.718c.247-7.227,5.443-10.313,11.817-7.037a22.878,22.878,0,0,1,7.4,6.5c.18.427.372.863.572,1.279a32.132,32.132,0,0,1,3.277,13.658" transform="translate(1.743 6.697)" fill="#00b1ec"/>
        <path id="Path_17222" data-name="Path 17222" d="M34.664,43.049v5.41L1.5,29.324l17.273-9.977,11.2,6.464a28.629,28.629,0,0,0,1.415,3.581,32.47,32.47,0,0,1,3.277,13.657" transform="translate(0.096 1.239)" fill="#bcc621"/>
        <path id="Path_17223" data-name="Path 17223" d="M82.781,175.184a1.6,1.6,0,0,1-.8-.214L47.394,155.017a1.6,1.6,0,0,1-.8-1.382v-2.7c0-4.539,1.353-8.341,3.915-10.995,1.229-1.266,1.876-3.319,1.876-5.94,0-4.575-2.1-10.165-5.475-14.586a21.216,21.216,0,0,0-6.859-6.049c-2.562-1.316-4.92-1.486-6.637-.48-1.739,1.021-2.753,3.207-2.854,6.153a22.387,22.387,0,0,0,2.36,9.979,33.841,33.841,0,0,1,3.432,14.341v2.514a1.6,1.6,0,0,1-2.394,1.382L.8,128.1a1.6,1.6,0,0,1-.8-1.382V29.962A1.6,1.6,0,0,1,2.394,28.58L33.163,46.333V43.688a31.074,31.074,0,0,0-3.123-12.973,31.008,31.008,0,0,1-1.493-3.782,22.877,22.877,0,0,1-1.174-7.675c.139-4.115,1.728-7.248,4.48-8.825,2.688-1.541,6.12-1.392,9.661.422,7.758,4,14.066,14.534,14.066,23.484,0,3.461-.959,6.279-2.773,8.149-1.974,2.044-3.018,5.08-3.018,8.775v4.679l33.789,19.5a1.6,1.6,0,0,1,.8,1.382v36.62l4.49,2.6C92.25,118,95.431,118.694,97.821,118c2.762-.828,5.981-.169,9.3,1.909,6.78,4.21,12.385,13.805,12.755,21.839.211,4.779-1.293,8.414-4.232,10.238-2.876,1.787-6.761,1.513-10.656-.75a23.716,23.716,0,0,1-6.147-5.259c-.582-.682-1.112-1.36-1.622-2.072a32.968,32.968,0,0,0-9.788-9.488l-3.052-1.762v40.937a1.6,1.6,0,0,1-1.6,1.6M49.788,152.712l31.4,18.112V129.888a1.6,1.6,0,0,1,2.394-1.383l5.444,3.142a36.145,36.145,0,0,1,10.791,10.4c.455.637.931,1.245,1.453,1.857a20.6,20.6,0,0,0,5.314,4.567c2.892,1.68,5.509,1.963,7.376.8,1.888-1.174,2.881-3.864,2.727-7.384-.327-7.09-5.27-15.557-11.256-19.274-2.481-1.556-4.858-2.108-6.7-1.555-3.294.956-7.251.181-11.458-2.245l-5.288-3.066a1.6,1.6,0,0,1-.8-1.381V77.749l-33.789-19.5a1.6,1.6,0,0,1-.8-1.382v-5.6c0-4.539,1.353-8.341,3.915-10.995,1.229-1.266,1.876-3.315,1.876-5.929,0-7.743-5.648-17.2-12.332-20.645-2.543-1.3-4.889-1.48-6.609-.495-1.757,1.008-2.783,3.2-2.883,6.167a19.694,19.694,0,0,0,1.027,6.6,27.415,27.415,0,0,0,1.335,3.384,33.841,33.841,0,0,1,3.429,14.338V49.1a1.6,1.6,0,0,1-2.394,1.382L3.192,32.726V125.8L33.16,143.1a31.233,31.233,0,0,0-3.121-12.723,25.24,25.24,0,0,1-2.667-11.455c.139-4.08,1.712-7.2,4.428-8.8,2.693-1.58,6.144-1.441,9.715.4a24.381,24.381,0,0,1,7.935,6.948c3.838,5.026,6.129,11.2,6.129,16.524,0,3.468-.959,6.29-2.773,8.159-1.974,2.044-3.018,5.079-3.018,8.775Z" transform="translate(0 0.601)" fill="#373a3a"/>
        <path id="Path_17224" data-name="Path 17224" d="M112.762,152.936a1.6,1.6,0,0,1-.8-2.979l17.271-9.965c1.975-1.148,3.016-3.87,2.851-7.467-.321-6.984-5.369-15.636-11.255-19.287-2.493-1.554-4.877-2.106-6.714-1.556-3.265.968-7.219.193-11.435-2.246l-5.295-3.052a1.6,1.6,0,0,1-.8-1.382V68.373L62.8,48.869a1.6,1.6,0,0,1-.8-1.382V41.9c0-4.551,1.356-8.354,3.919-11,1.232-1.269,1.883-3.323,1.883-5.935,0-7.736-5.652-17.185-12.344-20.634-2.56-1.312-4.907-1.494-6.6-.51L31.576,13.8a1.6,1.6,0,0,1-1.593-2.767L47.252,1.058c2.669-1.546,6.1-1.393,9.664.433,7.763,4,14.076,14.532,14.076,23.473,0,3.459-.963,6.28-2.785,8.158-1.974,2.036-3.018,5.07-3.018,8.775v4.668l33.79,19.5a1.6,1.6,0,0,1,.8,1.383V104.08l4.5,2.592c3.392,1.962,6.561,2.655,8.927,1.951,2.762-.828,5.985-.17,9.312,1.9,6.783,4.208,12.389,13.807,12.758,21.853.22,4.824-1.4,8.606-4.439,10.375l-17.276,9.968a1.591,1.591,0,0,1-.8.214" transform="translate(1.87 0)" fill="#373a3a"/>
        <path id="Path_17225" data-name="Path 17225" d="M77.894,75.06a1.6,1.6,0,0,1-.8-2.978L94.366,62.1a1.6,1.6,0,0,1,1.6,2.764L78.691,74.845a1.585,1.585,0,0,1-.8.215" transform="translate(4.888 3.965)" fill="#373a3a"/>
        <path id="Path_17226" data-name="Path 17226" d="M1.6,31.016a1.6,1.6,0,0,1-.8-2.978L18.07,18.061a1.6,1.6,0,0,1,1.6,0l11.2,6.464a1.6,1.6,0,1,1-1.6,2.764l-10.4-6L2.4,30.8a1.585,1.585,0,0,1-.8.215" transform="translate(0 1.143)" fill="#373a3a"/>
        <path id="Path_17227" data-name="Path 17227" d="M32.764,140.995a1.6,1.6,0,0,1-.8-2.978L48.438,128.5v-1.592a30.742,30.742,0,0,0-3.119-12.968c-.211-.438-.415-.9-.605-1.35a1.6,1.6,0,1,1,2.942-1.24c.169.4.351.815.541,1.208a33.994,33.994,0,0,1,3.434,14.35v2.513a1.6,1.6,0,0,1-.8,1.382L33.561,140.78a1.588,1.588,0,0,1-.8.215" transform="translate(1.997 7.071)" fill="#373a3a"/>
        <path id="Path_17228" data-name="Path 17228" d="M77.893,167.119a1.6,1.6,0,0,1-.8-2.978l16.473-9.505V136.872a1.6,1.6,0,0,1,3.192,0v18.685a1.6,1.6,0,0,1-.8,1.382L78.69,166.905a1.6,1.6,0,0,1-.8.214" transform="translate(4.888 8.666)" fill="#373a3a"/>
        <path id="Path_17229" data-name="Path 17229" d="M45.389,56.3a1.6,1.6,0,0,1-.8-2.978l17.272-9.977a1.6,1.6,0,1,1,1.6,2.763L46.186,56.082a1.585,1.585,0,0,1-.8.215" transform="translate(2.805 2.763)" fill="#373a3a"/>
      </g>
    </g>
  </g>
</svg>
