<svg xmlns="http://www.w3.org/2000/svg" xmlns:xlink="http://www.w3.org/1999/xlink" width="209.891" height="209.322" viewBox="0 0 209.891 209.322">
  <defs>
    <linearGradient id="linear-gradient" x1="0.097" y1="0.917" x2="0.941" y2="0.066" gradientUnits="objectBoundingBox">
      <stop offset="0" stop-color="#0d96d4"/>
      <stop offset="1" stop-color="#15b3e8"/>
    </linearGradient>
    <clipPath id="clip-path">
      <rect id="Rectangle_5819" data-name="Rectangle 5819" width="111.1" height="158.981" fill="url(#linear-gradient)"/>
    </clipPath>
    <clipPath id="clip-path-2">
      <rect id="Rectangle_5822" data-name="Rectangle 5822" width="141.997" height="159.722" fill="none"/>
    </clipPath>
  </defs>
  <g id="Group_31866" data-name="Group 31866" transform="translate(-1185.226 -236)">
    <g id="Group_31858" data-name="Group 31858" transform="translate(1185.226 289.535) rotate(-17)">
      <g id="Group_31558" data-name="Group 31558" clip-path="url(#clip-path)">
        <path id="Path_17154" data-name="Path 17154" d="M111.1,55.555a55.555,55.555,0,0,0-111.1-1.3C-.31,67.986,13.366,77.835,12.343,90.469c-.9,11.137-4.834,13.951-4.657,21.754a47.871,47.871,0,0,0,95.73-1.113c0-7.392-4.137-5.931-4.669-20.641C98.3,78.2,111.1,68.784,111.1,55.555" transform="translate(0 0)" fill="url(#linear-gradient)"/>
      </g>
    </g>
    <g id="Group_31855" data-name="Group 31855" transform="translate(1192.282 306.999) rotate(-30)">
      <path id="Path_17177" data-name="Path 17177" d="M30.4,23.338,24.737,35.173,0,18.643,5.669,6.818,17.512,0l5.7,5.308L41.049,17.222Z" transform="translate(47.125 120.251)" fill="#00b1ec"/>
      <path id="Path_17178" data-name="Path 17178" d="M36.762,16.53l-12.03,2.685L0,2.695,12.024,0Z" transform="translate(35.1 138.894)" fill="#969a9e"/>
      <path id="Path_17179" data-name="Path 17179" d="M36.748,16.53,24.732,27.65,0,11.13,12.01,0Z" transform="translate(70.34 114.429)" fill="#dae0e5"/>
      <path id="Path_17180" data-name="Path 17180" d="M24.822,42.044.084,25.514,0,15.02,9.567,2.01,18.839,0,43.561,16.526,34.3,18.514,24.732,31.54Z" transform="translate(82.267 88.915)" fill="#00b1ec"/>
      <path id="Path_17181" data-name="Path 17181" d="M30.026,20.211l-5.3,4.952L0,8.638,5.283,3.7l.02-.01.041-.046L9.252,0l9.59,2.007L18.8,12.577l11.312,7.552-.03.041-.051.051Z" transform="translate(16.3 129.012)" fill="#00b1ec"/>
      <path id="Path_17182" data-name="Path 17182" d="M32.139,16.509,24.723,31.828,0,15.3,7.412,0Z" transform="translate(101.105 73.612)" fill="#dae0e5"/>
      <g id="Group_31822" data-name="Group 31822">
        <g id="Group_31821" data-name="Group 31821" clip-path="url(#clip-path-2)">
          <path id="Path_17183" data-name="Path 17183" d="M86.6,52.188c-.239-9.464-4.474-16.423-12.233-18.044a16.353,16.353,0,0,0-3.617-.352,22.681,22.681,0,0,0-6.885,1.151c-11.3,3.577-23.6,15.092-30.836,30.014-4.449,9.206-6.194,18.08-5.448,25.221a23.568,23.568,0,0,0,1.665,6.792,14.213,14.213,0,0,0,10.407,8.859,21.95,21.95,0,0,0,12.514-1.519C62.877,100.09,74.183,89.049,80.994,75c3.968-8.19,5.786-16.136,5.6-22.811M51.182,125.456l-5.669,11.825-12.025,2.695.043-10.57L23.94,127.4l-3.908,3.64-.04.045-.02.011-5.284,4.942-7.451-6.765L13,117.451l-3.68-10.044-9.3,2.16L0,95.92l9.289-8.542,3.635-14.256-5.8-5.144,7.406-15.314L23.8,50.669l9.563-13.02-.074-10.5L45.3,16.031,51,21.318,62.843,14.51,68.512,2.685,80.542,0l-.057,10.565,9.591,2.008,9.262-8.643,7.451,6.765L101.26,22.017l-.005.015-.232.472,3.669,10.05L114,30.4l.02,13.648-9.293,8.532L101.1,66.843l5.8,5.156L99.493,87.3l-9.271,2.01-9.567,13.01.084,10.494-12.01,11.13-5.7-5.308Z" transform="translate(1.612 1.613)" fill="#fff"/>
          <path id="Path_17184" data-name="Path 17184" d="M30.532,44.462,5.8,27.953,0,22.8,3.63,8.532,12.923,0,37.672,16.526l-9.3,8.536-3.64,14.246Z" transform="translate(102.713 45.659)" fill="#00b1ec"/>
          <path id="Path_17185" data-name="Path 17185" d="M12.038,8.037l12.7,8.493.031,13.644L.02,13.648,0,0Z" transform="translate(115.616 32.011)" fill="#dae0e5"/>
          <path id="Path_17186" data-name="Path 17186" d="M24.752,70.518a21.954,21.954,0,0,1-12.515,1.519A14.217,14.217,0,0,1,1.83,63.179,23.568,23.568,0,0,1,.167,56.387c-.746-7.14,1-16.015,5.447-25.221C12.848,16.245,25.148,4.729,36.449,1.152A22.687,22.687,0,0,1,43.335,0a16.347,16.347,0,0,1,3.617.352C54.711,1.974,58.946,8.933,59.186,18.4,48.448,22.616,37.157,33.637,30.351,47.7c-3.964,8.2-5.777,16.132-5.6,22.822" transform="translate(29.024 35.403)" fill="#bcc621"/>
          <path id="Path_17187" data-name="Path 17187" d="M32.183,23.284,26.706,34.5,14.666,26.468,5.354,28.624,1.685,18.574l.232-.472.005-.015L7.451,6.764,0,0,24.738,16.53Z" transform="translate(100.949 5.543)" fill="#00b1ec"/>
          <path id="Path_17188" data-name="Path 17188" d="M13.888,8.571l-4.3,4L0,10.565.058,0Z" transform="translate(82.096 1.613)" fill="#00b1ec"/>
          <path id="Path_17189" data-name="Path 17189" d="M7.408,131.61a1.61,1.61,0,0,1-.009-1.431l5.459-11.2-2.953-8.061L2,112.752a1.617,1.617,0,0,1-1.368-.308,1.6,1.6,0,0,1-.61-1.261L0,97.535a1.613,1.613,0,0,1,.52-1.189l8.936-8.218L12.73,75.288,7.666,70.8a1.614,1.614,0,0,1-.382-1.91L14.69,53.573A1.616,1.616,0,0,1,15.8,52.7l8.668-1.865,8.883-12.1-.07-9.964a1.613,1.613,0,0,1,.516-1.195l12.016-11.12a1.616,1.616,0,0,1,2.195,0l4.821,4.479,10.383-5.966L68.67,3.6a1.617,1.617,0,0,1,1.1-.879L81.8.038a1.613,1.613,0,0,1,1.964,1.583l-.049,9.249L91.2,12.435l8.651-8.071a1.611,1.611,0,0,1,2.184-.015l7.451,6.764a1.614,1.614,0,0,1,.365,1.9l-5.465,11.193,2.945,8.066,7.924-1.835a1.612,1.612,0,0,1,1.976,1.57l.019,13.649a1.621,1.621,0,0,1-.522,1.19l-8.939,8.207L104.519,67.9l5.069,4.5a1.611,1.611,0,0,1,.38,1.909l-7.411,15.3a1.612,1.612,0,0,1-1.11.873l-8.676,1.88-8.888,12.088.081,9.957a1.617,1.617,0,0,1-.516,1.2L71.437,126.743a1.615,1.615,0,0,1-2.2,0l-4.831-4.5-10.378,5.976-5.454,11.373a1.612,1.612,0,0,1-1.1.877l-12.024,2.695a1.615,1.615,0,0,1-1.967-1.581l.039-9.254-7.484-1.567L17.4,138.828a1.615,1.615,0,0,1-2.186.015l-7.45-6.765a1.593,1.593,0,0,1-.357-.469m4.963-23.315a1.639,1.639,0,0,1,.074.171l3.68,10.044a1.613,1.613,0,0,1-.066,1.261L10.829,130.5l5.454,4.952,8.169-7.624a1.608,1.608,0,0,1,1.43-.4l9.59,2.007a1.613,1.613,0,0,1,1.284,1.585l-.034,8.548,9.286-2.081,5.331-11.12a1.618,1.618,0,0,1,.649-.7l11.844-6.819a1.614,1.614,0,0,1,1.9.218l4.606,4.287,10.391-9.627-.08-9.782a1.623,1.623,0,0,1,.313-.968l9.567-13.011a1.608,1.608,0,0,1,.958-.62l8.5-1.843,6.538-13.5-4.891-4.345a1.612,1.612,0,0,1-.492-1.6l3.629-14.265a1.629,1.629,0,0,1,.472-.791l8.77-8.051-.016-10.912-7.339,1.7a1.607,1.607,0,0,1-1.879-1.019l-3.669-10.05a1.616,1.616,0,0,1,.068-1.265l5.231-10.719-5.454-4.953-8.177,7.63a1.616,1.616,0,0,1-1.432.4l-9.589-2.008a1.617,1.617,0,0,1-1.283-1.587l.046-8.541L71.24,5.7,65.909,16.82a1.628,1.628,0,0,1-.651.7L53.409,24.33a1.612,1.612,0,0,1-1.9-.217l-4.6-4.27-10.4,9.62.069,9.787a1.608,1.608,0,0,1-.312.966L26.71,53.237a1.611,1.611,0,0,1-.961.623l-8.5,1.828L10.72,69.194l4.886,4.334a1.618,1.618,0,0,1,.492,1.607L12.463,89.39a1.609,1.609,0,0,1-.471.788L3.227,98.239l.016,10.911,7.321-1.7a1.613,1.613,0,0,1,1.807.845" transform="translate(0 0)" fill="#373a3a"/>
          <path id="Path_17190" data-name="Path 17190" d="M2.513,66.627q-.294-.586-.556-1.2A25.2,25.2,0,0,1,.175,58.161c-.8-7.681,1.184-16.946,5.6-26.082,7.232-14.918,19.715-27.026,31.8-30.852A24.355,24.355,0,0,1,44.948,0a17.832,17.832,0,0,1,3.946.386C57.079,2.1,62.133,9.416,62.411,19.969c.19,7.235-1.8,15.38-5.766,23.556-6.8,14.028-18.175,25.563-29.69,30.107-4.85,1.915-9.37,2.452-13.438,1.6a15.55,15.55,0,0,1-11-8.6M57.043,10.479a12.474,12.474,0,0,0-8.808-6.934,14.8,14.8,0,0,0-3.265-.318A21.216,21.216,0,0,0,38.553,4.3C27.265,7.874,15.541,19.328,8.677,33.484c-4.156,8.6-6.037,17.248-5.293,24.349a21.932,21.932,0,0,0,1.544,6.335,12.654,12.654,0,0,0,9.251,7.9c3.44.724,7.339.239,11.592-1.44C36.4,66.436,47.38,55.244,53.742,42.118c3.737-7.713,5.621-15.344,5.443-22.065a22.618,22.618,0,0,0-2.142-9.575" transform="translate(27.411 33.79)" fill="#373a3a"/>
          <path id="Path_17191" data-name="Path 17191" d="M.189,54.469a1.667,1.667,0,0,1-.176-.691c-.191-7.224,1.8-15.374,5.759-23.567C12.565,16.177,23.937,4.648,35.453.119a1.613,1.613,0,0,1,1.341,2.93l-.011.005c-.044.023-.088.043-.134.061-10.8,4.24-21.516,15.161-27.972,28.5C4.949,39.328,3.07,46.943,3.236,53.642a1.612,1.612,0,0,1-3.047.827" transform="translate(52.151 52.187)" fill="#373a3a"/>
          <path id="Path_17192" data-name="Path 17192" d="M.172,2.338A1.613,1.613,0,0,1,2.509.273L26.17,16.086l4.369-4.08a1.679,1.679,0,0,1,.159-.13,1.628,1.628,0,0,1,1.989-.036,1.592,1.592,0,0,1,.322,2.241l-.03.04a1.548,1.548,0,0,1-.135.156,1.81,1.81,0,0,1-.173.153l-5.234,4.886a1.612,1.612,0,0,1-2,.161L.717,2.953a1.609,1.609,0,0,1-.544-.615" transform="translate(14.686 136.036)" fill="#373a3a"/>
          <path id="Path_17193" data-name="Path 17193" d="M.173,2.339A1.613,1.613,0,0,1,2.509.272L27.247,16.8a1.651,1.651,0,0,1,.187.146L34.88,23.7a1.613,1.613,0,0,1,.366,1.9L29.717,36.929a1.613,1.613,0,0,1-2.9-1.415l5-10.235L25.355,19.42.718,2.955a1.614,1.614,0,0,1-.545-.616" transform="translate(99.336 3.929)" fill="#373a3a"/>
          <path id="Path_17194" data-name="Path 17194" d="M.173,95.887A1.613,1.613,0,0,1,2.509,93.82l23.673,15.813,10.56-9.771-.083-9.79a1.609,1.609,0,0,1,.313-.969l9.573-13.026a1.611,1.611,0,0,1,.96-.622l8.488-1.823L62.534,60.12l-4.891-4.345a1.612,1.612,0,0,1-.491-1.6l3.64-14.246a1.624,1.624,0,0,1,.472-.791l8.778-8.054-.026-12.074L45.994,2.955A1.613,1.613,0,1,1,47.786.272L72.522,16.8a1.614,1.614,0,0,1,.717,1.337l.03,13.646a1.616,1.616,0,0,1-.523,1.191L63.8,41.187,60.52,54.016l5.069,4.5a1.608,1.608,0,0,1,.381,1.908L58.552,75.746a1.61,1.61,0,0,1-1.112.874l-8.659,1.859-8.891,12.1.084,9.966a1.617,1.617,0,0,1-.517,1.2L27.441,112.864a1.612,1.612,0,0,1-1.991.158L.718,96.5a1.606,1.606,0,0,1-.545-.616" transform="translate(68.727 30.397)" fill="#373a3a"/>
          <path id="Path_17195" data-name="Path 17195" d="M.173,2.339A1.612,1.612,0,0,1,2.508.272L27.256,16.8a1.613,1.613,0,1,1-1.791,2.683L.717,2.955a1.6,1.6,0,0,1-.544-.616" transform="translate(114.024 44.046)" fill="#373a3a"/>
          <path id="Path_17196" data-name="Path 17196" d="M.172,2.339A1.613,1.613,0,0,1,2.509.272L27.236,16.781a1.613,1.613,0,0,1-1.791,2.683L.718,2.955a1.606,1.606,0,0,1-.545-.616" transform="translate(106.904 71.998)" fill="#373a3a"/>
          <path id="Path_17197" data-name="Path 17197" d="M.172,2.339A1.613,1.613,0,0,1,2.509.273L27.232,16.8a1.612,1.612,0,1,1-1.793,2.681L.717,2.954a1.609,1.609,0,0,1-.544-.615" transform="translate(99.493 87.302)" fill="#373a3a"/>
          <path id="Path_17198" data-name="Path 17198" d="M.173,2.339A1.613,1.613,0,0,1,2.509.272L27.246,16.8a1.613,1.613,0,1,1-1.791,2.682L.718,2.955a1.614,1.614,0,0,1-.545-.616" transform="translate(80.738 112.815)" fill="#373a3a"/>
          <path id="Path_17199" data-name="Path 17199" d="M.173,2.339A1.612,1.612,0,0,1,2.508.272L27.247,16.8a1.613,1.613,0,1,1-1.793,2.683L.718,2.955a1.6,1.6,0,0,1-.545-.616" transform="translate(45.511 137.28)" fill="#373a3a"/>
          <path id="Path_17200" data-name="Path 17200" d="M.173,6.454A1.613,1.613,0,0,1,2.509,4.387L26.668,20.524,37.259,18.16,42.585,7.032a1.621,1.621,0,0,1,.652-.7L53.884.215a1.613,1.613,0,1,1,1.608,2.8L45.279,8.878,39.832,20.26a1.617,1.617,0,0,1-1.1.879L26.7,23.824a1.614,1.614,0,0,1-1.246-.233L.718,7.07a1.606,1.606,0,0,1-.545-.616" transform="translate(33.486 135.86)" fill="#373a3a"/>
          <path id="Path_17201" data-name="Path 17201" d="M.172,2.338a1.613,1.613,0,0,1,2.29-2.1l13.83,8.57a1.613,1.613,0,0,1-1.7,2.742L.764,2.984a1.6,1.6,0,0,1-.591-.645" transform="translate(80.541 0)" fill="#373a3a"/>
        </g>
      </g>
    </g>
  </g>
</svg>
